<svg width="60" height="40" viewBox="0 0 60 40" fill="none" xmlns="http://www.w3.org/2000/svg">
<rect y="40" width="5" height="10" transform="rotate(-90 0 40)" fill="#EDED2D"/>
<rect y="20" width="5" height="15" transform="rotate(-90 0 20)" fill="#EDED2D"/>
<rect y="15" width="5" height="60" transform="rotate(-90 0 15)" fill="#EDED2D"/>
<rect x="45" y="20" width="5" height="15" transform="rotate(-90 45 20)" fill="#EDED2D"/>
<rect x="25" y="20" width="5" height="10" transform="rotate(-90 25 20)" fill="#EDED2D"/>
<rect x="20" y="5" width="5" height="20" transform="rotate(-90 20 5)" fill="#EDED2D"/>
<rect x="5" y="10" width="5" height="50" transform="rotate(-90 5 10)" fill="#EDED2D"/>
<rect x="10" y="35" width="5" height="10" transform="rotate(-90 10 35)" fill="#EDED2D"/>
<rect x="15" y="30" width="5" height="10" transform="rotate(-90 15 30)" fill="#EDED2D"/>
<rect width="5" height="10" transform="matrix(4.37114e-08 -1 -1 -4.37114e-08 60 40)" fill="#EDED2D"/>
<rect width="5" height="60" transform="matrix(4.37114e-08 -1 -1 -4.37114e-08 60 25)" fill="#EDED2D"/>
<rect width="5" height="10" transform="matrix(4.37114e-08 -1 -1 -4.37114e-08 50 35)" fill="#EDED2D"/>
<rect width="5" height="10" transform="matrix(4.37114e-08 -1 -1 -4.37114e-08 45 30)" fill="#EDED2D"/>
<rect x="25" y="35" width="5" height="10" transform="rotate(-90 25 35)" fill="#EDED2D"/>
</svg>
