<svg width="55" height="40" viewBox="0 0 55 40" fill="none" xmlns="http://www.w3.org/2000/svg">
<rect x="5" y="15" width="5" height="10" fill="#23EBEB"/>
<rect x="15" y="5" width="5" height="10" fill="#23EBEB"/>
<rect x="15" y="20" width="5" height="10" fill="#23EBEB"/>
<rect x="5" y="40" width="5" height="5" transform="rotate(-90 5 40)" fill="#23EBEB"/>
<rect x="45" y="40" width="5" height="5" transform="rotate(-90 45 40)" fill="#23EBEB"/>
<rect x="10" width="5" height="5" fill="#23EBEB"/>
<rect x="10" y="10" width="5" height="25" fill="#23EBEB"/>
<rect y="5" width="5" height="15" fill="#23EBEB"/>
<rect width="5" height="10" transform="matrix(-1 0 0 1 50 15)" fill="#23EBEB"/>
<rect width="5" height="10" transform="matrix(-1 0 0 1 40 5)" fill="#23EBEB"/>
<rect width="20" height="5" transform="matrix(-1 0 0 1 40 10)" fill="#23EBEB"/>
<rect width="15" height="5" transform="matrix(-1 0 0 1 35 15)" fill="#23EBEB"/>
<rect width="20" height="10" transform="matrix(-1 0 0 1 40 20)" fill="#23EBEB"/>
<rect width="5" height="5" transform="matrix(-1 0 0 1 45 0)" fill="#23EBEB"/>
<rect width="5" height="25" transform="matrix(-1 0 0 1 45 10)" fill="#23EBEB"/>
<rect width="5" height="15" transform="matrix(-1 0 0 1 55 5)" fill="#23EBEB"/>
</svg>
