<svg width="87" height="93" viewBox="0 0 87 93" fill="none" xmlns="http://www.w3.org/2000/svg">
<rect x="24.4657" y="48.0232" width="3.76505" height="7.53011" transform="rotate(-30 24.4657 48.0232)" fill="#F44336"/>
<rect x="18.4487" y="60.1921" width="3.76505" height="7.53011" transform="rotate(-30 18.4487 60.1921)" fill="#F44336"/>
<rect x="39.8951" y="52.1575" width="3.76505" height="7.53011" transform="rotate(-30 39.8951 52.1575)" fill="#F44336"/>
<rect x="40.9039" y="68.9651" width="3.76505" height="7.53011" transform="rotate(-30 40.9039 68.9651)" fill="#F44336"/>
<rect x="41.2732" y="47.0144" width="3.76505" height="7.53011" transform="rotate(-30 41.2732 47.0144)" fill="#F44336"/>
<rect x="42.2821" y="63.8219" width="3.76505" height="11.2952" transform="rotate(-30 42.2821 63.8219)" fill="#F44336"/>
<rect x="31.4913" y="52.6619" width="3.76505" height="3.76505" transform="rotate(-30 31.4913 52.6619)" fill="#3F51B5"/>
<rect x="30.1133" y="57.8051" width="3.76505" height="3.76505" transform="rotate(-30 30.1133 57.8051)" fill="#3F51B5"/>
<rect width="3.76505" height="7.53011" transform="matrix(-0.866025 0.5 0.5 0.866025 53.8113 31.0805)" fill="#F44336"/>
<rect width="3.76505" height="7.53011" transform="matrix(-0.866025 0.5 0.5 0.866025 67.3583 31.9542)" fill="#F44336"/>
<rect width="3.76505" height="7.53011" transform="matrix(-0.866025 0.5 0.5 0.866025 49.677 46.5099)" fill="#F44336"/>
<rect width="3.76505" height="7.53011" transform="matrix(-0.866025 0.5 0.5 0.866025 63.7284 55.7874)" fill="#F44336"/>
<rect width="3.76505" height="11.2952" transform="matrix(-0.866025 0.5 0.5 0.866025 58.5852 54.4093)" fill="#F44336"/>
<rect width="3.76505" height="3.76505" transform="matrix(-0.866025 0.5 0.5 0.866025 54.3158 39.4843)" fill="#3F51B5"/>
<rect width="3.76505" height="3.76505" transform="matrix(-0.866025 0.5 0.5 0.866025 59.4589 40.8624)" fill="#3F51B5"/>
<rect x="22.2139" y="66.7133" width="3.76505" height="26.3554" transform="rotate(-30 22.2139 66.7133)" fill="white"/>
<rect x="27.3571" y="68.0914" width="3.76505" height="18.8253" transform="rotate(-30 27.3571 68.0914)" fill="white"/>
<rect x="28.7351" y="62.9483" width="3.76505" height="18.8253" transform="rotate(-30 28.7351 62.9483)" fill="white"/>
<rect x="31.9958" y="61.0657" width="3.76505" height="15.0602" transform="rotate(-30 31.9958 61.0657)" fill="white"/>
<rect x="33.3739" y="55.9226" width="3.76505" height="15.0602" transform="rotate(-30 33.3739 55.9226)" fill="white"/>
<rect x="43.6602" y="58.6788" width="3.76505" height="15.0602" transform="rotate(-30 43.6602 58.6788)" fill="white"/>
<rect x="50.1815" y="54.9137" width="3.76505" height="15.0602" transform="rotate(-30 50.1815 54.9137)" fill="white"/>
<rect x="45.912" y="39.9887" width="3.76505" height="18.8253" transform="rotate(-30 45.912 39.9887)" fill="white"/>
<rect x="33.2388" y="25.568" width="3.76505" height="26.3554" transform="rotate(-30 33.2388 25.568)" fill="white"/>
<rect x="54.3158" y="39.4843" width="3.76505" height="3.76505" transform="rotate(-30 54.3158 39.4843)" fill="white"/>
<rect x="28.2307" y="54.5445" width="3.76505" height="3.76505" transform="rotate(-30 28.2307 54.5445)" fill="white"/>
<rect x="26.7174" y="29.3331" width="3.76505" height="26.3554" transform="rotate(-30 26.7174 29.3331)" fill="white"/>
<rect x="22.8245" y="15.0602" width="3.76505" height="36.8975" transform="rotate(-30 22.8245 15.0602)" fill="white"/>
<rect x="52.9376" y="44.6274" width="3.76505" height="15.0602" transform="rotate(-30 52.9376 44.6274)" fill="white"/>
<rect x="58.0808" y="46.0055" width="3.76505" height="15.0602" transform="rotate(-30 58.0808 46.0055)" fill="white"/>
<rect x="61.3414" y="44.123" width="3.76505" height="18.8253" transform="rotate(-30 61.3414 44.123)" fill="white"/>
<rect x="66.4846" y="45.5011" width="3.76505" height="18.8253" transform="rotate(-30 66.4846 45.5011)" fill="white"/>
<rect x="67.8627" y="40.3579" width="3.76505" height="26.3554" transform="rotate(-30 67.8627 40.3579)" fill="white"/>
<rect x="45.0383" y="53.5356" width="3.76505" height="30.1204" transform="rotate(-30 45.0383 53.5356)" fill="white"/>
<rect x="32.8694" y="47.5188" width="3.76505" height="18.8253" transform="rotate(-30 32.8694 47.5188)" fill="white"/>
</svg>
