<svg width="19" height="31" viewBox="0 0 19 31" fill="none" xmlns="http://www.w3.org/2000/svg">
<rect x="8.35352" y="14" width="2" height="9" fill="#25B344"/>
<path d="M9.35352 22L11.6672 25.2392C11.7884 25.4088 11.8535 25.612 11.8535 25.8205V29.5C11.8535 30.0523 12.3012 30.5 12.8535 30.5H13.3535" stroke="#25B344"/>
<path d="M9.35352 22L7.03978 25.2392C6.91864 25.4088 6.85352 25.612 6.85352 25.8205V29.5C6.85352 30.0523 6.4058 30.5 5.85352 30.5H5.35352" stroke="#25B344"/>
<path d="M9.35352 16.0858L5.27077 15.4399C5.06212 15.4069 4.86929 15.3086 4.71992 15.1593L2.12132 12.5607C1.73079 12.1701 1.09763 12.1701 0.707102 12.5607L0.353548 12.9142" stroke="#25B344"/>
<path d="M9.35352 16.0858L13.4363 15.4399C13.6449 15.4069 13.8377 15.3086 13.9871 15.1593L16.5857 12.5607C16.9762 12.1701 17.6094 12.1701 17.9999 12.5607L18.3535 12.9142" stroke="#25B344"/>
<path d="M14.9004 5.2114C14.9004 8.08957 12.5394 14.7656 9.62695 14.7656C6.71451 14.7656 4.35352 8.08957 4.35352 5.2114C4.35352 2.33322 6.71451 0 9.62695 0C12.5394 0 14.9004 2.33322 14.9004 5.2114Z" fill="#3DD65E"/>
<path d="M13.3284 9.80819C12.7623 10.3743 10.994 11.2324 10.4326 10.671C9.87113 10.1096 10.7292 8.34124 11.2953 7.77509C11.8615 7.20895 12.7756 7.20512 13.337 7.76655C13.8984 8.32797 13.8946 9.24205 13.3284 9.80819Z" fill="black"/>
<path d="M6.22234 9.80819C6.78848 10.3743 8.5568 11.2324 9.11822 10.671C9.67965 10.1096 8.82158 8.34124 8.25544 7.77509C7.6893 7.20895 6.77522 7.20512 6.2138 7.76655C5.65237 8.32797 5.6562 9.24205 6.22234 9.80819Z" fill="black"/>
</svg>
