<svg width="95" height="90" viewBox="0 0 95 90" fill="none" xmlns="http://www.w3.org/2000/svg">
<path d="M40 42C40 40.8954 40.8954 40 42 40H53C54.1046 40 55 40.8954 55 42V48C55 49.1046 54.1046 50 53 50H42C40.8954 50 40 49.1046 40 48V42Z" fill="white"/>
<path d="M42 40V41H53V40V39H42V40ZM55 42H54V48H55H56V42H55ZM53 50V49H42V50V51H53V50ZM40 48H41V42H40H39V48H40ZM42 50V49C41.4477 49 41 48.5523 41 48H40H39C39 49.6569 40.3431 51 42 51V50ZM55 48H54C54 48.5523 53.5523 49 53 49V50V51C54.6569 51 56 49.6569 56 48H55ZM53 40V41C53.5523 41 54 41.4477 54 42H55H56C56 40.3431 54.6569 39 53 39V40ZM42 40V39C40.3431 39 39 40.3431 39 42H40H41C41 41.4477 41.4477 41 42 41V40Z" fill="black" fill-opacity="0.1"/>
<path d="M44.9216 47.7647C43.308 46.1512 43.308 43.5351 44.9216 41.9216C46.5351 40.308 49.1512 40.308 50.7647 41.9216L53.6863 44.8431L50.7647 47.7647C49.1512 49.3782 46.5351 49.3782 44.9216 47.7647Z" fill="url(#paint0_radial_0_1)"/>
<defs>
<radialGradient id="paint0_radial_0_1" cx="0" cy="0" r="1" gradientUnits="userSpaceOnUse" gradientTransform="translate(46.5 45) scale(7)">
<stop stop-color="#F8F008"/>
<stop offset="1" stop-color="#FF0000"/>
</radialGradient>
</defs>
</svg>
