<svg width="402" height="402" viewBox="0 0 402 402" fill="none" xmlns="http://www.w3.org/2000/svg">
<circle cx="201" cy="201" r="201" fill="#C1440E"/>
<mask id="mask0_36_610" style="mask-type:alpha" maskUnits="userSpaceOnUse" x="0" y="0" width="402" height="402">
<circle cx="201" cy="201" r="201" fill="#3B98DF"/>
</mask>
<g mask="url(#mask0_36_610)">
<path d="M127 42L130 39.5L127 38.5L134.5 35.5C133 37.3333 130.4 40.6 132 39C133.6 37.4 138.333 37.3333 140.5 37.5L144.5 36C144.667 36.3333 145.1 37.5 145.5 39.5C146 42 135 46 135 46.5C135 47 133 46.5 132.5 46.5C132 46.5 131 47.5 130.5 47C130.1 46.6 129 45.8333 128.5 45.5H125.5L128.5 43L127 42Z" fill="#8B2E14"/>
<path d="M191.5 127.5C190.333 128.667 188.4 131.5 190 133.5C191.6 135.5 191.667 130.333 191.5 127.5Z" fill="#8B2E14"/>
<path d="M166.5 142.5C166.1 142.5 168.667 140.5 170 139.5L168.5 143.5C168 143.167 166.9 142.5 166.5 142.5Z" fill="#8B2E14"/>
<path d="M137 82.5L147 78L150 81.5L145.5 83L148.5 85L145.5 90.5H140.5L137 93L133.5 91L138.5 87L137 82.5Z" fill="#8B2E14"/>
<path d="M203.5 148.5C206.333 148.167 212.1 147.5 212.5 147.5L211 153.5L203.5 148.5Z" fill="#8B2E14"/>
<path d="M187.5 137L192 135.5C194 145.1 190.167 145.167 188 144C188.8 143.2 188 139 187.5 137Z" fill="#8B2E14"/>
<path d="M106 24.5L86.5 9L177 1.5C176.167 2.5 174 4.7 172 5.5C170 6.3 167.833 8.16667 167 9L158.5 13.5L152.5 16.5L145 23L143 22H141.5C142 23.6667 142.4 26.7 140 25.5C137.6 24.3 116.333 33.6667 106 38.5C100 40.1 85.8333 53.5 79.5 60L76.5 55.5C74.5 51.1 95.3334 33 106 24.5Z" fill="#8B2E14"/>
<path d="M164.5 87.5C166.1 82.7 160.833 77.5 158 75.5C156.5 76.3333 154.9 76.7 160.5 71.5C167.5 65 152.5 69.7902 157 67.5C160.6 65.6679 158.167 64.7366 156.5 64.5L149.5 69.5C151.5 69 154.7 68.5 151.5 70.5C148.3 72.5 149.833 74 151 74.5C144 83 156.5 71.5 152.5 77C148.5 82.5 156.5 78.5 155.5 79.5C154.7 80.3 155.833 81.1667 156.5 81.5L155.5 85L150 87.5L152.5 89L148 92L153.5 93L147 98L162 96C159.5 96.6667 156.1 97.6 162.5 96C168.9 94.4 166.5 93.3333 164.5 93C171.3 89.4 167.333 87.8333 164.5 87.5Z" fill="#8B2E14"/>
<path d="M173.051 93.5C177.237 88.5771 181.668 85.3197 184.501 84.9863H185.001C185.168 84.8197 185.651 84.5 186.051 84.5C186.451 84.5 187.218 84.1667 187.551 84L190.051 83.5H192.051C193.051 83.5 193.051 82 193.051 81.5C193.051 81 192.551 80 192.051 79.5C191.551 79 191.551 78.5 191.551 78C191.551 77.5 190.551 76 190.051 76C189.651 76 189.885 74.6667 190.051 74C190.218 73.5 190.651 72.3 191.051 71.5C191.451 70.7 191.551 70.1667 191.551 70L193.051 69C193.551 68.8333 194.651 68.4 195.051 68C195.451 67.6 196.885 67.5 197.551 67.5V72.5C197.551 73 197.551 75 198.051 75.5C198.451 75.9 198.218 76.6667 198.051 77C197.218 77 195.251 77.1 194.051 77.5C192.851 77.9 193.885 78.3333 194.551 78.5C195.385 79.1667 197.051 80.6 197.051 81C197.051 81.4 198.385 81.8333 199.051 82L201.051 81L205.051 80.5L207.551 82.5L219.051 78.5L222.551 80.5L226.551 79.5L227.051 74L225.551 71.5L229.551 67L232.551 69.5H234.051L233.051 65C230.251 63.4 231.885 61.3333 233.051 60.5H240.551L242.051 60L244.051 58.5C243.551 57 242.251 54.3 241.051 55.5C239.551 57 235.551 58 231.051 58C227.451 58 225.218 56.3333 224.551 55.5V51.5L223.051 50L222.551 48C223.551 46.5 226.151 43 228.551 41C230.951 39 227.885 37.5 226.051 37C223.651 36.6 222.718 39.1667 222.551 40.5L222.051 43L216.051 48L213.551 55C214.385 55.3333 216.151 56.1 216.551 56.5C216.951 56.9 217.718 57.3333 218.051 57.5L219.051 60L214.051 67.5L215.551 70.5V73L209.551 75L207.551 75.5L206.051 76.5C205.718 76.6667 205.051 76.8 205.051 76C205.051 75 204.551 75 204.551 74C204.551 73 203.551 72.5 203.051 72C202.651 71.6 202.551 71.1667 202.551 71L201.551 69.5L201.051 67L199.551 65V63.5L198.551 62L195.551 63L193.051 64.5C192.385 64.8333 190.951 65.6 190.551 66C190.051 66.5 188.051 66 187.551 66C187.151 66 185.718 65.3333 185.051 65L183.051 63.5L184.551 61.5L182.551 60L184.051 58.5L183.051 55.5L183.551 51L199.051 42L206.051 30.5L209.051 28.5L206.051 28L207.051 27L212.051 26.5L210.551 25.5L213.051 23L218.551 22L222.051 20L229.551 20.5L233.551 23.5L242.551 25L255.551 30.5C260.351 35.7 255.551 36.3333 252.551 36L243.551 33.5L256.551 43.5L254.551 40L261.051 41L258.051 37.5L264.551 35L259.051 27.5L269.051 34L268.051 31L272.551 26.5L276.551 28L278.551 26.5L281.551 27.5L273.551 22L292.051 28L272.551 15L275.551 13.5L405.051 10L401.501 212.486C401.429 212.402 400.501 212.986 399.501 213.986C398.236 215.251 394.051 224.833 391.551 231C387.951 234.2 385.718 245 385.051 250L376.051 265.5L378.051 218.5L377.551 214.5L374.551 217.5L371.551 212.5L372.551 210.5L365.551 199.5C360.351 201.9 350.384 199.167 346.051 197.5L342.051 192.5C341.051 193.167 338.851 194.5 338.051 194.5C337.251 194.5 331.051 189.833 328.051 187.5C327.884 183.5 326.551 176.3 322.551 179.5C318.551 182.7 323.551 190.833 326.551 194.5L327.551 199.5L330.551 197.5L332.051 205L337.051 204L343.051 196.5C342.251 198.5 344.718 203.333 346.051 205.5C351.251 209.9 350.884 213.333 350.051 214.5C346.051 220.1 345.718 223.5 346.051 224.5C344.851 224.5 342.884 227.5 342.051 229C339.651 229 338.051 231.667 337.551 233C333.951 232.2 330.051 236.333 328.551 238.5C324.151 238.1 316.384 243 313.051 245.5C308.251 249.1 304.718 248 303.551 247C305.551 246.2 303.718 241 302.551 238.5C304.551 230.1 297.384 221 293.551 217.5C295.951 211.9 289.884 204.5 286.551 201.5C287.751 198.3 281.718 190.961 278.551 187.692V190L271.051 181.5L283.051 209C287.051 210.6 288.051 220.667 288.051 225.5C290.851 226.3 292.884 233.833 293.551 237.5C296.351 239.5 301.384 246.333 303.551 249.5C303.051 250.667 302.051 253.1 302.051 253.5C302.051 253.9 304.718 255.667 306.051 256.5L324.051 251.5C325.651 255.5 318.384 266.5 314.551 271.5C313.351 277.5 296.668 291.153 288.001 297.486L286.501 298.486L278.051 310.5C278.051 330.5 271.051 339.5 267.551 341.5C264.351 341.1 256.884 347.333 253.551 350.5C254.751 356.9 247.384 361.833 243.551 363.5C242.718 367.167 237.751 375.6 224.551 380C211.351 384.4 210.051 381.5 211.051 379.5C213.851 377.9 209.551 369.5 207.051 365.5V357C203.051 350.2 201.384 342.833 201.051 340L206.051 327C208.851 317.4 197.884 302.333 192.051 296C190.051 294.4 191.551 287 192.551 283.5C194.551 278.7 190.718 276.5 188.551 276C186.551 278.4 182.384 277.667 180.551 277C177.351 270.2 170.884 270.167 168.051 271C165.651 273 156.718 275.167 152.551 276C148.951 272.8 139.051 275.667 134.551 277.5L120.551 267.5L112.551 257C104.151 249.8 102.718 240.667 103.051 237C105.851 233 102.884 222 101.051 217C100.251 213.8 109.051 197.333 113.551 189.5C119.151 189.1 122.884 182.333 124.051 179C122.851 171.8 130.218 165.667 134.051 163.5L139.051 156.5L145.551 160H150.551L162.551 153.5L193.051 151.5C199.451 153.9 196.718 160.5 194.551 163.5L200.051 168L213.051 170.5L213.551 173L226.551 178.5L229.551 175.5C229.551 171.9 234.551 169.333 237.051 168.5L260.551 176.5C261.751 174.1 272.051 174.5 277.051 175L281.551 162V152.5L270.051 154.5C268.451 151.3 263.051 153.5 260.551 155C260.951 153.4 254.718 150 251.551 148.5V143.5L249.051 139.5H252.551L258.551 134.5C260.951 135.3 266.218 133.833 268.551 133C270.151 130.6 274.218 131 276.051 131.5L292.551 134.5C297.751 133.3 294.718 129 292.551 127L280.551 118L283.051 110.5L273.551 115L279.051 118.5L270.051 121L266.551 116.5L268.551 114L264.551 112.5C263.051 110 260.551 112.5 260.051 112.5C259.651 112.5 257.551 116.5 256.551 118.5C256.951 122.9 254.384 127 253.051 128.5L256.551 134.5L250.051 137C249.551 136.333 247.851 135.1 245.051 135.5C242.251 135.9 240.551 138 240.051 139L237.551 138L236.551 140L239.551 144.5C245.151 146.1 241.884 147.833 239.551 148.5L239.051 153C238.884 153.333 237.851 153.5 235.051 151.5C232.251 149.5 233.551 146.667 234.551 145.5L225.551 137.5V131C221.551 131.8 211.218 121.667 206.551 116.5C202.151 117.3 202.718 120.167 203.551 121.5L223.051 138.5L221.551 140C219.551 138 218.051 138.5 217.551 139C218.751 145.4 215.718 146.333 214.051 146C216.851 143.2 213.218 138.833 211.051 137C206.651 137 199.218 129.667 196.051 126C192.851 119.2 184.384 124.167 180.551 127.5C173.351 123.1 170.551 128.333 170.051 131.5C165.051 132 157.551 140 159.051 142C160.551 144 153.051 153 151.051 152.5C149.451 152.1 143.051 154 140.051 155L135.051 151.5C132.551 152 127.851 152.6 129.051 151C130.251 149.4 128.218 145.667 127.051 144C128.218 140.667 130.751 133.6 131.551 132C132.551 130 133.051 124 134.051 125.5C134.851 126.7 147.718 126 154.051 125.5L158.051 114.5L147.551 105.5L159.051 103.5L157.051 100L161.551 101L169.051 98C169.5 92.5 170.5 96.5 173.051 93.5Z" fill="#8B2E14"/>
<path d="M269 354.5C271 354.9 274.167 348.333 275.5 345C275.1 343 279 340.167 281 339L288.5 336.5L296 329C296.4 328.6 294.5 335.167 293.5 338.5L291 339.5L274.5 358.5C271.7 362.5 267.667 362.5 266 362L269 354.5Z" fill="#8B2E14"/>
<path d="M117.5 385C121.5 389.8 96.8333 405 84 412L-18 356C-11 311.667 2.9 224.6 2.5 231C2 239 14 273.5 22 273C28.4 272.6 32.6667 280.167 34 284L43.5 296C46 299.833 51.5 306.6 53.5 303C56 298.5 62.5 303.5 72 309C79.6 313.4 79.5 326.5 78.5 332.5L95 357C86 359 112.5 379 117.5 385Z" fill="#8B2E14"/>
</g>
</svg>
