<svg width="89" height="134" viewBox="0 0 89 134" fill="none" xmlns="http://www.w3.org/2000/svg">
<path d="M24.0417 114C4.8417 114 1.0417 127.333 1.5417 134C-4.85829 107.2 10.2084 88.8333 18.5417 83H24.0417V114Z" fill="#F1252E"/>
<path d="M64 114C83.2001 114 87 127.333 86.5 134C92.9 107.2 77.8334 88.8333 69.5001 83H64V114Z" fill="#F1252E"/>
<path d="M30.9178 119.29C31.1051 119.104 31.3582 119 31.622 119L56.6808 119C56.9445 119 57.1976 119.104 57.3849 119.29L62.4269 124.29C63.061 124.919 62.6157 126 61.7228 126L26.5799 126C25.687 126 25.2418 124.919 25.8758 124.29L30.9178 119.29Z" fill="#4D4D4D"/>
<path d="M30.0959 114.281C30.2824 114.101 30.5317 114 30.7912 114L56.5115 114C56.771 114 57.0203 114.101 57.2068 114.281L62.3749 119.281C63.0209 119.906 62.5785 121 61.6796 121L25.6232 121C24.7243 121 24.2818 119.906 24.9278 119.281L30.0959 114.281Z" fill="#8C8C8C"/>
<path d="M21.5407 38.3602C21.8152 37.5473 22.5776 37 23.4356 37H63.5644C64.4224 37 65.1848 37.5473 65.4593 38.3602L68.1869 46.4382C68.2289 46.5624 68.2585 46.6905 68.2754 46.8205L69.5 56.25L70 75.5L68.5 94.75L65.2986 112.358C65.1257 113.309 64.2974 114 63.3308 114H23.6692C22.7026 114 21.8743 113.309 21.7014 112.358L18.5 94.75L17 75.5L17.5 56.25L18.7246 46.8205C18.7415 46.6905 18.7711 46.5624 18.8131 46.4382L21.5407 38.3602Z" fill="#FBF1CD"/>
<path d="M31.9347 12.0023C32.2916 11.3822 32.9526 11 33.6681 11H53.3319C54.0474 11 54.7084 11.3822 55.0653 12.0023L62.7047 25.2749C62.8079 25.4542 62.8827 25.6484 62.9263 25.8506L65.5779 38.1353C65.811 39.2152 65.1243 40.2796 64.0442 40.5124L54.9158 42.4794C54.8055 42.5032 54.6933 42.5176 54.5806 42.5225L43.5 43L32.4194 42.5225C32.3067 42.5176 32.1945 42.5032 32.0842 42.4794L22.9558 40.5124C21.8757 40.2796 21.189 39.2152 21.4221 38.1353L24.0737 25.8506C24.1173 25.6484 24.1921 25.4542 24.2953 25.2749L31.9347 12.0023Z" fill="#F1252E"/>
<path d="M54 11L53.8311 11.1838C48.2042 17.3062 38.5179 17.2207 33 11L42.5971 0.76436C42.9873 0.348115 43.6462 0.342277 44.0438 0.751541L54 11Z" fill="#8C8C8C"/>
<path d="M39.1096 128.5C39.5096 90.9 41.943 78.5 43.1096 77C45.9096 80.2 46.943 112.667 47.1096 128.5C47.1096 130.333 46.2096 133.9 42.6096 133.5C39.0096 133.1 38.7763 130 39.1096 128.5Z" fill="#F1252E"/>
<circle cx="42.5" cy="58.5" r="12.5" fill="#8C8C8C"/>
<circle cx="42.5" cy="58.5" r="8.5" fill="#17D9EB"/>
</svg>
