<?xml version="1.0" encoding="UTF-8"?>
<svg id="Layer_1" data-name="Layer 1" xmlns="http://www.w3.org/2000/svg" viewBox="0 0 88.04 133.55">
  <defs>
    <style>
      .cls-1 {
        fill: #f1252e;
      }

      .cls-2 {
        fill: #4d4d4d;
      }

      .cls-3 {
        fill: #fbf1cd;
      }

      .cls-4 {
        fill: #17d9eb;
      }

      .cls-5 {
        fill: #8c8c8c;
      }
    </style>
  </defs>
  <path class="cls-1" d="M24.04,113.55c-19.2,0-23,13.33-22.5,20-6.4-26.8,8.67-45.17,17-51h5.5v31Z"/>
  <path class="cls-1" d="M64,113.55c19.2,0,23,13.33,22.5,20,6.4-26.8-8.67-45.17-17-51h-5.5v31Z"/>
  <path class="cls-2" d="M30.92,118.84c.19-.19.44-.29.7-.29h25.06c.26,0,.52.1.7.29l5.04,5c.63.63.19,1.71-.7,1.71H26.58c-.89,0-1.34-1.08-.7-1.71l5.04-5Z"/>
  <path class="cls-5" d="M30.1,113.83c.19-.18.44-.28.7-.28h25.72c.26,0,.51.1.7.28l5.17,5c.65.62.2,1.72-.7,1.72H25.62c-.9,0-1.34-1.09-.7-1.72l5.17-5Z"/>
  <path class="cls-3" d="M21.54,37.91c.27-.81,1.04-1.36,1.89-1.36h40.13c.86,0,1.62.55,1.89,1.36l2.73,8.08c.04.12.07.25.09.38l1.22,9.43.5,19.25-1.5,19.25-3.2,17.61c-.17.95-1,1.64-1.97,1.64H23.67c-.97,0-1.79-.69-1.97-1.64l-3.2-17.61-1.5-19.25.5-19.25,1.22-9.43c.02-.13.05-.26.09-.38l2.73-8.08Z"/>
  <path class="cls-1" d="M31.93,11.55c.36-.62,1.02-1,1.73-1h19.66c.72,0,1.38.38,1.73,1l7.64,13.27c.1.18.18.37.22.58l2.65,12.28c.23,1.08-.45,2.14-1.53,2.38l-9.13,1.97c-.11.02-.22.04-.34.04l-11.08.48-11.08-.48c-.11,0-.22-.02-.34-.04l-9.13-1.97c-1.08-.23-1.77-1.3-1.53-2.38l2.65-12.28c.04-.2.12-.4.22-.58l7.64-13.27Z"/>
  <path class="cls-5" d="M54,10.55l-.17.18c-5.63,6.12-15.31,6.04-20.83-.18L42.6.32c.39-.42,1.05-.42,1.45-.01l9.96,10.25Z"/>
  <path class="cls-1" d="M39.11,128.05c.4-37.6,2.83-50,4-51.5,2.8,3.2,3.83,35.67,4,51.5,0,1.83-.9,5.4-4.5,5s-3.83-3.5-3.5-5Z"/>
  <circle class="cls-5" cx="42.5" cy="58.05" r="12.5"/>
  <circle class="cls-4" cx="42.5" cy="58.05" r="8.5"/>
</svg>