<svg width="373" height="358" viewBox="0 0 373 358" fill="none" xmlns="http://www.w3.org/2000/svg">
<mask id="mask0_2_360" style="mask-type:alpha" maskUnits="userSpaceOnUse" x="0" y="74" width="140" height="196">
<path d="M14.8391 77.6811C15.0676 76.2216 16.5165 75.276 17.9446 75.6537L18.0882 75.6957L136.629 114.554C137.755 114.923 138.467 116.032 138.334 117.209L121.578 266.044C121.389 267.724 119.623 268.736 118.078 268.049L2.98465 216.897C2.00074 216.46 1.40759 215.441 1.51199 214.37L14.8206 77.8295L14.8391 77.6811Z" fill="#0A0E14" stroke="#292929" stroke-width="3"/>
</mask>
<g mask="url(#mask0_2_360)">
<path d="M14.8391 77.6811C15.0676 76.2216 16.5165 75.276 17.9446 75.6537L18.0882 75.6957L136.629 114.554C137.755 114.923 138.467 116.032 138.334 117.209L121.578 266.044C121.389 267.724 119.623 268.736 118.078 268.049L2.98465 216.897C2.00074 216.46 1.40759 215.441 1.51199 214.37L14.8206 77.8295L14.8391 77.6811Z" fill="#0A0E14" stroke="#292929" stroke-width="3"/>
<line x1="-3.89509" y1="74.7627" x2="137.105" y2="125.763" stroke="#6A666C"/>
<line x1="-3.89509" y1="83.7627" x2="137.105" y2="134.763" stroke="#6A666C"/>
<line x1="131.432" y1="112.289" x2="114.432" y2="263.289" stroke="#6A666C"/>
<line x1="113.432" y1="105.289" x2="96.4317" y2="256.289" stroke="#6A666C"/>
<line x1="95.4317" y1="98.2888" x2="78.4317" y2="249.289" stroke="#6A666C"/>
<line x1="77.4317" y1="88.2888" x2="60.4317" y2="239.289" stroke="#6A666C"/>
<line x1="59.4317" y1="82.2888" x2="42.4317" y2="233.289" stroke="#6A666C"/>
<line x1="41.4317" y1="75.2888" x2="24.4317" y2="226.289" stroke="#6A666C"/>
<line x1="26.4317" y1="71.2888" x2="9.43171" y2="222.289" stroke="#6A666C"/>
<line x1="-3.89509" y1="93.7627" x2="137.105" y2="144.763" stroke="#6A666C"/>
<line x1="-3.89509" y1="103.763" x2="137.105" y2="154.763" stroke="#6A666C"/>
<line x1="-3.89509" y1="113.763" x2="137.105" y2="164.763" stroke="#6A666C"/>
<line x1="-3.89509" y1="123.763" x2="137.105" y2="174.763" stroke="#6A666C"/>
<line x1="-3.89509" y1="133.763" x2="137.105" y2="184.763" stroke="#6A666C"/>
<line x1="-4.89509" y1="143.763" x2="136.105" y2="194.763" stroke="#6A666C"/>
<line x1="-4.89509" y1="152.763" x2="136.105" y2="203.763" stroke="#6A666C"/>
<line x1="-4.89509" y1="162.763" x2="136.105" y2="213.763" stroke="#6A666C"/>
<line x1="-4.89509" y1="172.763" x2="136.105" y2="223.763" stroke="#6A666C"/>
<line x1="-4.89509" y1="182.763" x2="136.105" y2="233.763" stroke="#6A666C"/>
<line x1="-4.89509" y1="192.763" x2="136.105" y2="243.763" stroke="#6A666C"/>
<line x1="-4.89509" y1="202.763" x2="136.105" y2="253.763" stroke="#6A666C"/>
<line x1="-6.89509" y1="211.763" x2="134.105" y2="262.763" stroke="#6A666C"/>
</g>
<path d="M191.935 39.3681L281.534 64.5165L185.935 165.733L91.4348 130.233L191.935 39.3681Z" fill="#292929"/>
<path d="M280.935 67.24L278.443 246.339L278.44 246.516L278.326 246.653L200.318 340.054L199.534 340.992L199.437 339.773L185.437 165.773L185.419 165.549L185.574 165.387L280.074 66.8868L280.953 65.9711L280.935 67.24Z" fill="#020304" stroke="#DAA01C"/>
<path d="M185.994 166.365L199.895 338.081L200.029 339.741L198.501 339.08L124.501 307.08L124.009 306.867L123.914 306.339L92.9139 133.339L92.6068 131.625L94.241 132.223L185.34 165.507L185.942 165.726L185.994 166.365Z" fill="#292929" stroke="#DAA01C" stroke-width="2"/>
<mask id="path-28-outside-1_2_360" maskUnits="userSpaceOnUse" x="219.824" y="227.901" width="15.4549" height="22.4238" fill="black">
<rect fill="white" x="219.824" y="227.901" width="15.4549" height="22.4238"/>
<path d="M225.353 228.266L234.866 229.43L232.352 249.971L222.839 248.806L225.353 228.266Z"/>
</mask>
<path d="M225.353 228.266L234.866 229.43L232.352 249.971L222.839 248.806L225.353 228.266Z" fill="#1B1C1D"/>
<path d="M222.839 248.806L225.817 249.171L228.331 228.63L225.353 228.266L222.375 227.901L219.861 248.442L222.839 248.806Z" fill="#979598" mask="url(#path-28-outside-1_2_360)"/>
<line x1="277.935" y1="71.7534" x2="273.935" y2="266.753" stroke="#C1B5AF" stroke-width="2" stroke-dasharray="10 10"/>
<mask id="mask1_2_360" style="mask-type:alpha" maskUnits="userSpaceOnUse" x="228" y="147" width="140" height="196">
<path d="M242.839 150.681C243.068 149.222 244.516 148.276 245.945 148.654L246.088 148.696L364.629 187.554C365.755 187.923 366.467 189.032 366.334 190.209L349.578 339.044C349.389 340.724 347.623 341.736 346.078 341.049L230.985 289.897C230.001 289.46 229.408 288.441 229.512 287.37L242.821 150.83L242.839 150.681Z" fill="#0A0E14" stroke="#292929" stroke-width="3"/>
</mask>
<g mask="url(#mask1_2_360)">
<path d="M242.839 150.681C243.068 149.222 244.516 148.276 245.945 148.654L246.088 148.696L364.629 187.554C365.755 187.923 366.467 189.032 366.334 190.209L349.578 339.044C349.389 340.724 347.623 341.736 346.078 341.049L230.985 289.897C230.001 289.46 229.408 288.441 229.512 287.37L242.821 150.83L242.839 150.681Z" fill="#0A0E14" stroke="#292929" stroke-width="3"/>
<line x1="224.105" y1="147.763" x2="365.105" y2="198.763" stroke="#6A666C"/>
<line x1="224.105" y1="156.763" x2="365.105" y2="207.763" stroke="#6A666C"/>
<line x1="359.432" y1="185.289" x2="342.432" y2="336.289" stroke="#6A666C"/>
<line x1="341.432" y1="178.289" x2="324.432" y2="329.289" stroke="#6A666C"/>
<line x1="323.432" y1="171.289" x2="306.432" y2="322.289" stroke="#6A666C"/>
<line x1="305.432" y1="161.289" x2="288.432" y2="312.289" stroke="#6A666C"/>
<line x1="287.432" y1="155.289" x2="270.432" y2="306.289" stroke="#6A666C"/>
<line x1="269.432" y1="148.289" x2="252.432" y2="299.289" stroke="#6A666C"/>
<line x1="254.432" y1="144.289" x2="237.432" y2="295.289" stroke="#6A666C"/>
<line x1="224.105" y1="166.763" x2="365.105" y2="217.763" stroke="#6A666C"/>
<line x1="224.105" y1="176.763" x2="365.105" y2="227.763" stroke="#6A666C"/>
<line x1="224.105" y1="186.763" x2="365.105" y2="237.763" stroke="#6A666C"/>
<line x1="224.105" y1="196.763" x2="365.105" y2="247.763" stroke="#6A666C"/>
<line x1="224.105" y1="206.763" x2="365.105" y2="257.763" stroke="#6A666C"/>
<line x1="223.105" y1="216.763" x2="364.105" y2="267.763" stroke="#6A666C"/>
<line x1="223.105" y1="225.763" x2="364.105" y2="276.763" stroke="#6A666C"/>
<line x1="223.105" y1="235.763" x2="364.105" y2="286.763" stroke="#6A666C"/>
<line x1="223.105" y1="245.763" x2="364.105" y2="296.763" stroke="#6A666C"/>
<line x1="223.105" y1="255.763" x2="364.105" y2="306.763" stroke="#6A666C"/>
<line x1="223.105" y1="265.763" x2="364.105" y2="316.763" stroke="#6A666C"/>
<line x1="223.105" y1="275.763" x2="364.105" y2="326.763" stroke="#6A666C"/>
<line x1="221.105" y1="284.763" x2="362.105" y2="335.763" stroke="#6A666C"/>
</g>
<path d="M123.824 234.49C123.674 232.646 125.51 231.282 127.232 231.959L179.532 252.522C180.41 252.868 181.019 253.679 181.106 254.62L184.993 296.947C185.163 298.797 183.327 300.179 181.596 299.504L128.865 278.949C127.974 278.601 127.358 277.776 127.281 276.823L123.824 234.49Z" fill="#313235" stroke="#89838B"/>
<path d="M116.935 250.233L162.935 269.733L166.935 306.733L122.935 288.233L116.935 250.233Z" fill="#494649"/>
<path d="M129.935 236.733L175.435 255.233L162.935 269.733L116.935 250.233L129.935 236.733Z" fill="#626064"/>
<path d="M175.435 255.233L178.435 295.233L166.935 306.733L162.935 269.733L175.435 255.233Z" fill="#2A2C2F"/>
<path d="M204.692 49.0948C192.292 43.0948 182.192 49.9281 178.692 54.0948L157.192 73.5948C149.192 80.3948 147.192 86.7615 147.192 89.0948L146.192 95.5948C144.592 107.595 150.858 111.595 154.192 112.095L180.692 120.595C190.292 122.995 197.358 121.595 199.692 120.595L225.192 111.095C234.392 107.895 238.358 104.095 239.192 102.595L261.692 77.5948C267.692 69.5948 258.192 64.5948 252.692 63.0948L204.692 49.0948Z" fill="#979598"/>
<path fill-rule="evenodd" clip-rule="evenodd" d="M197.494 52.7383C199.579 52.6852 201.645 53.0109 203.45 53.6767C205.108 54.288 206.487 55.1641 207.449 56.2187C207.885 56.6975 208.228 57.2064 208.474 57.7324H208.935V59.7324H208.933C208.933 60.9603 208.427 62.1673 207.462 63.2314C206.602 64.1801 205.405 64.9841 203.972 65.583L203.973 65.584C203.917 65.6075 203.859 65.6295 203.802 65.6523C203.657 65.7104 203.511 65.7674 203.362 65.8213L203.361 65.8203C201.887 66.352 200.239 66.663 198.541 66.7226C196.631 66.7898 194.727 66.5374 193.016 65.9931V65.9941C193.005 65.9907 192.994 65.9868 192.984 65.9834C192.971 65.9794 192.958 65.9757 192.946 65.9717V65.9707C191.242 65.4188 189.792 64.5945 188.741 63.5771C187.724 62.5917 187.116 61.4588 186.97 60.2851L186.969 60.2861C186.966 60.2606 186.964 60.2345 186.961 60.209C186.958 60.1798 186.954 60.1503 186.951 60.1211L186.952 60.1201C186.941 59.9908 186.937 59.8615 186.937 59.7324H186.935V57.7324H187.394C187.558 57.3829 187.765 57.0403 188.014 56.709C188.844 55.6061 190.114 54.66 191.697 53.9668C193.408 53.2172 195.418 52.7912 197.494 52.7383Z" fill="#535353"/>
<path d="M203.419 51.772C205.064 52.379 206.426 53.2468 207.374 54.2866C208.308 55.31 208.806 56.4624 208.832 57.6333H198.158L203.419 51.772Z" fill="#1A1B1C" stroke="#656565" stroke-width="0.2"/>
<mask id="path-62-inside-2_2_360" fill="white">
<path d="M192.946 63.9717C194.675 64.5313 196.605 64.7903 198.542 64.7222C200.478 64.6541 202.352 64.2614 203.973 63.584L197.935 57.7328L192.946 63.9717Z"/>
</mask>
<path d="M192.946 63.9717C194.675 64.5313 196.605 64.7903 198.542 64.7222C200.478 64.6541 202.352 64.2614 203.973 63.584L197.935 57.7328L192.946 63.9717Z" fill="#1A1B1C" stroke="#656565" stroke-width="0.4" mask="url(#path-62-inside-2_2_360)"/>
<mask id="path-63-inside-3_2_360" fill="white">
<path d="M191.74 51.9482C190.138 52.6432 188.852 53.5955 188.014 54.7086C187.177 55.8216 186.816 57.0558 186.969 58.2861L197.935 57.7328L191.74 51.9482Z"/>
</mask>
<path d="M191.74 51.9482C190.138 52.6432 188.852 53.5955 188.014 54.7086C187.177 55.8216 186.816 57.0558 186.969 58.2861L197.935 57.7328L191.74 51.9482Z" fill="#1A1B1C" stroke="#656565" stroke-width="0.4" mask="url(#path-63-inside-3_2_360)"/>
<mask id="path-64-inside-4_2_360" fill="white">
<path d="M203.362 63.8216C205.067 63.2061 206.483 62.3118 207.463 61.2313C208.442 60.1508 208.95 58.9233 208.934 57.6758L197.935 57.7328L203.362 63.8216Z"/>
</mask>
<path d="M203.362 63.8216C205.067 63.2061 206.483 62.3118 207.463 61.2313C208.442 60.1508 208.95 58.9233 208.934 57.6758L197.935 57.7328L203.362 63.8216Z" fill="#39393C" stroke="#656565" stroke-width="0.4" mask="url(#path-64-inside-4_2_360)"/>
<mask id="path-65-inside-5_2_360" fill="white">
<path d="M186.952 58.1208C187.059 59.3531 187.677 60.5454 188.742 61.5768C189.807 62.6083 191.281 63.4422 193.016 63.994L197.935 57.7328L186.952 58.1208Z"/>
</mask>
<path d="M186.952 58.1208C187.059 59.3531 187.677 60.5454 188.742 61.5768C189.807 62.6083 191.281 63.4422 193.016 63.994L197.935 57.7328L186.952 58.1208Z" fill="#39393C" stroke="#656565" stroke-width="0.4" mask="url(#path-65-inside-5_2_360)"/>
<mask id="path-66-inside-6_2_360" fill="white">
<path d="M203.755 51.7929C201.882 51.0498 199.701 50.6824 197.496 50.7384C195.291 50.7944 193.163 51.2713 191.389 52.107L197.935 57.7328L203.755 51.7929Z"/>
</mask>
<path d="M203.755 51.7929C201.882 51.0498 199.701 50.6824 197.496 50.7384C195.291 50.7944 193.163 51.2713 191.389 52.107L197.935 57.7328L203.755 51.7929Z" fill="#39393C" stroke="#656565" stroke-width="0.4" mask="url(#path-66-inside-6_2_360)"/>
<path fill-rule="evenodd" clip-rule="evenodd" d="M218.494 59.7385C220.556 59.686 222.599 60.0037 224.39 60.6545H224.391C224.405 60.6596 224.419 60.6651 224.433 60.6702C224.439 60.6724 224.445 60.6747 224.451 60.677H224.45C226.108 61.2883 227.486 62.1642 228.449 63.219C228.885 63.6978 229.228 64.2066 229.475 64.7327H229.935V66.7327H229.933C229.933 67.9604 229.427 69.1677 228.462 70.2317C227.483 71.312 226.066 72.2061 224.362 72.8215C222.888 73.3532 221.239 73.6622 219.541 73.7219C217.631 73.7891 215.726 73.5376 214.016 72.9934C214.003 72.9892 213.989 72.985 213.976 72.9807C213.966 72.9776 213.956 72.975 213.947 72.9719V72.9709C212.242 72.419 210.792 71.594 209.741 70.5764C208.724 69.5911 208.116 68.4589 207.97 67.2854L207.969 67.2864C207.966 67.2609 207.964 67.2347 207.961 67.2092C207.958 67.18 207.954 67.1505 207.951 67.1213L207.952 67.1203C207.941 66.991 207.937 66.8618 207.937 66.7327H207.935V64.7327H208.393C208.557 64.3827 208.764 64.0399 209.014 63.7082C209.84 62.6106 211.103 61.6691 212.675 60.9768H212.674C214.39 60.221 216.409 59.7917 218.494 59.7385Z" fill="#535353"/>
<path d="M224.419 58.772C226.064 59.379 227.426 60.2468 228.374 61.2866C229.308 62.31 229.806 63.4624 229.832 64.6333H219.158L224.419 58.772Z" fill="#1A1B1C" stroke="#656565" stroke-width="0.2"/>
<mask id="path-69-inside-7_2_360" fill="white">
<path d="M213.946 70.9717C215.675 71.5313 217.605 71.7903 219.542 71.7222C221.478 71.6541 223.352 71.2614 224.973 70.584L218.935 64.7328L213.946 70.9717Z"/>
</mask>
<path d="M213.946 70.9717C215.675 71.5313 217.605 71.7903 219.542 71.7222C221.478 71.6541 223.352 71.2614 224.973 70.584L218.935 64.7328L213.946 70.9717Z" fill="#1A1B1C" stroke="#656565" stroke-width="0.4" mask="url(#path-69-inside-7_2_360)"/>
<mask id="path-70-inside-8_2_360" fill="white">
<path d="M212.74 58.9482C211.138 59.6432 209.852 60.5955 209.014 61.7086C208.177 62.8216 207.816 64.0558 207.969 65.2861L218.935 64.7328L212.74 58.9482Z"/>
</mask>
<path d="M212.74 58.9482C211.138 59.6432 209.852 60.5955 209.014 61.7086C208.177 62.8216 207.816 64.0558 207.969 65.2861L218.935 64.7328L212.74 58.9482Z" fill="#1A1B1C" stroke="#656565" stroke-width="0.4" mask="url(#path-70-inside-8_2_360)"/>
<mask id="path-71-inside-9_2_360" fill="white">
<path d="M224.362 70.8216C226.067 70.2061 227.483 69.3118 228.463 68.2313C229.442 67.1508 229.95 65.9233 229.934 64.6758L218.935 64.7328L224.362 70.8216Z"/>
</mask>
<path d="M224.362 70.8216C226.067 70.2061 227.483 69.3118 228.463 68.2313C229.442 67.1508 229.95 65.9233 229.934 64.6758L218.935 64.7328L224.362 70.8216Z" fill="#39393C" stroke="#656565" stroke-width="0.4" mask="url(#path-71-inside-9_2_360)"/>
<mask id="path-72-inside-10_2_360" fill="white">
<path d="M207.952 65.1208C208.059 66.3531 208.677 67.5454 209.742 68.5768C210.807 69.6083 212.281 70.4422 214.016 70.994L218.935 64.7328L207.952 65.1208Z"/>
</mask>
<path d="M207.952 65.1208C208.059 66.3531 208.677 67.5454 209.742 68.5768C210.807 69.6083 212.281 70.4422 214.016 70.994L218.935 64.7328L207.952 65.1208Z" fill="#39393C" stroke="#656565" stroke-width="0.4" mask="url(#path-72-inside-10_2_360)"/>
<mask id="path-73-inside-11_2_360" fill="white">
<path d="M224.755 58.7929C222.882 58.0498 220.701 57.6824 218.496 57.7384C216.291 57.7944 214.163 58.2713 212.389 59.107L218.935 64.7328L224.755 58.7929Z"/>
</mask>
<path d="M224.755 58.7929C222.882 58.0498 220.701 57.6824 218.496 57.7384C216.291 57.7944 214.163 58.2713 212.389 59.107L218.935 64.7328L224.755 58.7929Z" fill="#39393C" stroke="#656565" stroke-width="0.4" mask="url(#path-73-inside-11_2_360)"/>
<path fill-rule="evenodd" clip-rule="evenodd" d="M239.494 67.7388C241.556 67.6862 243.6 68.0037 245.391 68.6548C245.405 68.6599 245.42 68.6653 245.434 68.6704C245.44 68.6726 245.446 68.6751 245.452 68.6772H245.451C247.109 69.2885 248.487 70.1646 249.449 71.2192C249.885 71.6981 250.228 72.2069 250.474 72.7329H250.935V74.7329H250.934C250.934 75.9604 250.428 77.1671 249.463 78.2309C248.603 79.1797 247.405 79.9846 245.972 80.5835L245.973 80.5845C245.773 80.6679 245.569 80.7471 245.363 80.8218L245.362 80.8208C243.889 81.3524 242.24 81.6624 240.542 81.7222C238.632 81.7893 236.727 81.537 235.016 80.9927V80.9936C235.001 80.989 234.987 80.9837 234.972 80.979C234.964 80.9763 234.955 80.9739 234.947 80.9712V80.9702C233.242 80.4183 231.793 79.594 230.742 78.5767C229.725 77.5913 229.116 76.4592 228.97 75.2856L228.969 75.2866C228.966 75.2595 228.963 75.2317 228.96 75.2046C228.957 75.1767 228.954 75.1485 228.951 75.1206L228.952 75.1196C228.941 74.9906 228.937 74.8617 228.937 74.7329H228.935V72.7329H229.393C229.557 72.3828 229.765 72.0403 230.015 71.7085C230.841 70.6109 232.103 69.6693 233.675 68.977H233.674C235.39 68.2212 237.409 67.792 239.494 67.7388Z" fill="#535353"/>
<path d="M245.419 66.772C247.064 67.379 248.426 68.2468 249.374 69.2866C250.308 70.31 250.806 71.4624 250.832 72.6333H240.158L245.419 66.772Z" fill="#1A1B1C" stroke="#656565" stroke-width="0.2"/>
<mask id="path-76-inside-12_2_360" fill="white">
<path d="M234.946 78.9717C236.675 79.5313 238.605 79.7903 240.542 79.7222C242.478 79.6541 244.352 79.2614 245.973 78.584L239.935 72.7328L234.946 78.9717Z"/>
</mask>
<path d="M234.946 78.9717C236.675 79.5313 238.605 79.7903 240.542 79.7222C242.478 79.6541 244.352 79.2614 245.973 78.584L239.935 72.7328L234.946 78.9717Z" fill="#1A1B1C" stroke="#656565" stroke-width="0.4" mask="url(#path-76-inside-12_2_360)"/>
<mask id="path-77-inside-13_2_360" fill="white">
<path d="M233.74 66.9482C232.138 67.6432 230.852 68.5955 230.014 69.7086C229.177 70.8216 228.816 72.0558 228.969 73.2861L239.935 72.7328L233.74 66.9482Z"/>
</mask>
<path d="M233.74 66.9482C232.138 67.6432 230.852 68.5955 230.014 69.7086C229.177 70.8216 228.816 72.0558 228.969 73.2861L239.935 72.7328L233.74 66.9482Z" fill="#1A1B1C" stroke="#656565" stroke-width="0.4" mask="url(#path-77-inside-13_2_360)"/>
<mask id="path-78-inside-14_2_360" fill="white">
<path d="M245.362 78.8216C247.067 78.2061 248.483 77.3118 249.463 76.2313C250.442 75.1508 250.95 73.9233 250.934 72.6758L239.935 72.7328L245.362 78.8216Z"/>
</mask>
<path d="M245.362 78.8216C247.067 78.2061 248.483 77.3118 249.463 76.2313C250.442 75.1508 250.95 73.9233 250.934 72.6758L239.935 72.7328L245.362 78.8216Z" fill="#39393C" stroke="#656565" stroke-width="0.4" mask="url(#path-78-inside-14_2_360)"/>
<mask id="path-79-inside-15_2_360" fill="white">
<path d="M228.952 73.1208C229.059 74.3531 229.677 75.5454 230.742 76.5768C231.807 77.6083 233.281 78.4422 235.016 78.994L239.935 72.7328L228.952 73.1208Z"/>
</mask>
<path d="M228.952 73.1208C229.059 74.3531 229.677 75.5454 230.742 76.5768C231.807 77.6083 233.281 78.4422 235.016 78.994L239.935 72.7328L228.952 73.1208Z" fill="#39393C" stroke="#656565" stroke-width="0.4" mask="url(#path-79-inside-15_2_360)"/>
<mask id="path-80-inside-16_2_360" fill="white">
<path d="M245.755 66.7929C243.882 66.0498 241.701 65.6824 239.496 65.7384C237.291 65.7944 235.163 66.2713 233.389 67.107L239.935 72.7328L245.755 66.7929Z"/>
</mask>
<path d="M245.755 66.7929C243.882 66.0498 241.701 65.6824 239.496 65.7384C237.291 65.7944 235.163 66.2713 233.389 67.107L239.935 72.7328L245.755 66.7929Z" fill="#39393C" stroke="#656565" stroke-width="0.4" mask="url(#path-80-inside-16_2_360)"/>
<path fill-rule="evenodd" clip-rule="evenodd" d="M195.494 67.7388C197.556 67.6862 199.6 68.0037 201.391 68.6548C201.405 68.6599 201.42 68.6653 201.434 68.6704C201.44 68.6726 201.446 68.6751 201.452 68.6772H201.451C203.109 69.2885 204.487 70.1646 205.449 71.2192C205.885 71.6981 206.228 72.2069 206.474 72.7329H206.935V74.7329H206.934C206.934 75.9604 206.428 77.1671 205.463 78.2309C204.603 79.1797 203.405 79.9846 201.972 80.5835L201.973 80.5845C201.773 80.6679 201.569 80.7471 201.363 80.8218L201.362 80.8208C199.889 81.3524 198.24 81.6624 196.542 81.7222C194.632 81.7893 192.727 81.537 191.016 80.9927V80.9936C191.001 80.989 190.987 80.9837 190.972 80.979C190.964 80.9763 190.955 80.9739 190.947 80.9712V80.9702C189.242 80.4183 187.793 79.594 186.742 78.5767C185.725 77.5913 185.116 76.4592 184.97 75.2856L184.969 75.2866C184.966 75.2595 184.963 75.2317 184.96 75.2046C184.957 75.1767 184.954 75.1485 184.951 75.1206L184.952 75.1196C184.941 74.9906 184.937 74.8617 184.937 74.7329H184.935V72.7329H185.393C185.557 72.3828 185.765 72.0403 186.015 71.7085C186.841 70.6109 188.103 69.6693 189.675 68.977H189.674C191.39 68.2212 193.409 67.792 195.494 67.7388Z" fill="#535353"/>
<path d="M201.419 66.772C203.064 67.379 204.426 68.2468 205.374 69.2866C206.308 70.31 206.806 71.4624 206.832 72.6333H196.158L201.419 66.772Z" fill="#1A1B1C" stroke="#656565" stroke-width="0.2"/>
<mask id="path-83-inside-17_2_360" fill="white">
<path d="M190.946 78.9717C192.675 79.5313 194.605 79.7903 196.542 79.7222C198.478 79.6541 200.352 79.2614 201.973 78.584L195.935 72.7328L190.946 78.9717Z"/>
</mask>
<path d="M190.946 78.9717C192.675 79.5313 194.605 79.7903 196.542 79.7222C198.478 79.6541 200.352 79.2614 201.973 78.584L195.935 72.7328L190.946 78.9717Z" fill="#1A1B1C" stroke="#656565" stroke-width="0.4" mask="url(#path-83-inside-17_2_360)"/>
<mask id="path-84-inside-18_2_360" fill="white">
<path d="M189.74 66.9482C188.138 67.6432 186.852 68.5955 186.014 69.7086C185.177 70.8216 184.816 72.0558 184.969 73.2861L195.935 72.7328L189.74 66.9482Z"/>
</mask>
<path d="M189.74 66.9482C188.138 67.6432 186.852 68.5955 186.014 69.7086C185.177 70.8216 184.816 72.0558 184.969 73.2861L195.935 72.7328L189.74 66.9482Z" fill="#1A1B1C" stroke="#656565" stroke-width="0.4" mask="url(#path-84-inside-18_2_360)"/>
<mask id="path-85-inside-19_2_360" fill="white">
<path d="M201.362 78.8216C203.067 78.2061 204.483 77.3118 205.463 76.2313C206.442 75.1508 206.95 73.9233 206.934 72.6758L195.935 72.7328L201.362 78.8216Z"/>
</mask>
<path d="M201.362 78.8216C203.067 78.2061 204.483 77.3118 205.463 76.2313C206.442 75.1508 206.95 73.9233 206.934 72.6758L195.935 72.7328L201.362 78.8216Z" fill="#39393C" stroke="#656565" stroke-width="0.4" mask="url(#path-85-inside-19_2_360)"/>
<mask id="path-86-inside-20_2_360" fill="white">
<path d="M184.952 73.1208C185.059 74.3531 185.677 75.5454 186.742 76.5768C187.807 77.6083 189.281 78.4422 191.016 78.994L195.935 72.7328L184.952 73.1208Z"/>
</mask>
<path d="M184.952 73.1208C185.059 74.3531 185.677 75.5454 186.742 76.5768C187.807 77.6083 189.281 78.4422 191.016 78.994L195.935 72.7328L184.952 73.1208Z" fill="#39393C" stroke="#656565" stroke-width="0.4" mask="url(#path-86-inside-20_2_360)"/>
<mask id="path-87-inside-21_2_360" fill="white">
<path d="M201.755 66.7929C199.882 66.0498 197.701 65.6824 195.496 65.7384C193.291 65.7944 191.163 66.2713 189.389 67.107L195.935 72.7328L201.755 66.7929Z"/>
</mask>
<path d="M201.755 66.7929C199.882 66.0498 197.701 65.6824 195.496 65.7384C193.291 65.7944 191.163 66.2713 189.389 67.107L195.935 72.7328L201.755 66.7929Z" fill="#39393C" stroke="#656565" stroke-width="0.4" mask="url(#path-87-inside-21_2_360)"/>
<path fill-rule="evenodd" clip-rule="evenodd" d="M216.494 75.739C218.556 75.6865 220.6 76.004 222.391 76.655C222.405 76.6601 222.42 76.6655 222.434 76.6706C222.44 76.6728 222.447 76.6753 222.452 76.6775H222.451C224.108 77.2888 225.487 78.1649 226.449 79.2195C226.885 79.6984 227.228 80.2071 227.474 80.7331H227.935V82.7331H227.934C227.934 83.9607 227.428 85.1673 226.463 86.2312C225.603 87.18 224.405 87.9848 222.972 88.5837L222.973 88.5847C222.773 88.6681 222.57 88.7473 222.363 88.822L222.362 88.821C220.889 89.3527 219.24 89.6626 217.542 89.7224C215.632 89.7896 213.727 89.5372 212.016 88.9929V88.9939C212.001 88.9892 211.987 88.9839 211.972 88.9792C211.964 88.9766 211.955 88.9741 211.947 88.9714V88.9704C210.242 88.4186 208.793 87.5942 207.742 86.5769C206.725 85.5915 206.116 84.4594 205.97 83.2859L205.969 83.2869C205.966 83.2597 205.963 83.232 205.96 83.2048C205.957 83.177 205.954 83.1488 205.951 83.1208L205.952 83.1199C205.941 82.9909 205.937 82.8619 205.937 82.7331H205.935V80.7331H206.393C206.557 80.383 206.765 80.0406 207.015 79.7087C207.841 78.6111 209.103 77.6696 210.675 76.9773H210.674C212.39 76.2215 214.409 75.7922 216.494 75.739Z" fill="#535353"/>
<path d="M222.419 74.772C224.064 75.379 225.426 76.2468 226.374 77.2866C227.308 78.31 227.806 79.4624 227.832 80.6333H217.158L222.419 74.772Z" fill="#1A1B1C" stroke="#656565" stroke-width="0.2"/>
<mask id="path-90-inside-22_2_360" fill="white">
<path d="M211.946 86.9717C213.675 87.5313 215.605 87.7903 217.542 87.7222C219.478 87.6541 221.352 87.2614 222.973 86.584L216.935 80.7328L211.946 86.9717Z"/>
</mask>
<path d="M211.946 86.9717C213.675 87.5313 215.605 87.7903 217.542 87.7222C219.478 87.6541 221.352 87.2614 222.973 86.584L216.935 80.7328L211.946 86.9717Z" fill="#1A1B1C" stroke="#656565" stroke-width="0.4" mask="url(#path-90-inside-22_2_360)"/>
<mask id="path-91-inside-23_2_360" fill="white">
<path d="M210.74 74.9482C209.138 75.6432 207.852 76.5955 207.014 77.7086C206.177 78.8216 205.816 80.0558 205.969 81.2861L216.935 80.7328L210.74 74.9482Z"/>
</mask>
<path d="M210.74 74.9482C209.138 75.6432 207.852 76.5955 207.014 77.7086C206.177 78.8216 205.816 80.0558 205.969 81.2861L216.935 80.7328L210.74 74.9482Z" fill="#1A1B1C" stroke="#656565" stroke-width="0.4" mask="url(#path-91-inside-23_2_360)"/>
<mask id="path-92-inside-24_2_360" fill="white">
<path d="M222.362 86.8216C224.067 86.2061 225.483 85.3118 226.463 84.2313C227.442 83.1508 227.95 81.9233 227.934 80.6758L216.935 80.7328L222.362 86.8216Z"/>
</mask>
<path d="M222.362 86.8216C224.067 86.2061 225.483 85.3118 226.463 84.2313C227.442 83.1508 227.95 81.9233 227.934 80.6758L216.935 80.7328L222.362 86.8216Z" fill="#39393C" stroke="#656565" stroke-width="0.4" mask="url(#path-92-inside-24_2_360)"/>
<mask id="path-93-inside-25_2_360" fill="white">
<path d="M205.952 81.1208C206.059 82.3531 206.677 83.5454 207.742 84.5768C208.807 85.6083 210.281 86.4422 212.016 86.994L216.935 80.7328L205.952 81.1208Z"/>
</mask>
<path d="M205.952 81.1208C206.059 82.3531 206.677 83.5454 207.742 84.5768C208.807 85.6083 210.281 86.4422 212.016 86.994L216.935 80.7328L205.952 81.1208Z" fill="#39393C" stroke="#656565" stroke-width="0.4" mask="url(#path-93-inside-25_2_360)"/>
<mask id="path-94-inside-26_2_360" fill="white">
<path d="M222.755 74.7929C220.882 74.0498 218.701 73.6824 216.496 73.7384C214.291 73.7944 212.163 74.2713 210.389 75.107L216.935 80.7328L222.755 74.7929Z"/>
</mask>
<path d="M222.755 74.7929C220.882 74.0498 218.701 73.6824 216.496 73.7384C214.291 73.7944 212.163 74.2713 210.389 75.107L216.935 80.7328L222.755 74.7929Z" fill="#39393C" stroke="#656565" stroke-width="0.4" mask="url(#path-94-inside-26_2_360)"/>
<path fill-rule="evenodd" clip-rule="evenodd" d="M174.494 76.7385C176.556 76.686 178.599 77.0037 180.39 77.6545H180.391C180.405 77.6596 180.419 77.6651 180.433 77.6702C180.439 77.6724 180.445 77.6747 180.451 77.677H180.45C182.108 78.2883 183.486 79.1642 184.449 80.219C184.885 80.6978 185.228 81.2066 185.475 81.7327H185.935V83.7327H185.933C185.933 84.9604 185.427 86.1677 184.462 87.2317C183.483 88.312 182.066 89.2061 180.362 89.8215C178.888 90.3532 177.239 90.6622 175.541 90.7219C173.631 90.7891 171.726 90.5376 170.016 89.9934C170.003 89.9892 169.989 89.985 169.976 89.9807C169.966 89.9776 169.956 89.975 169.947 89.9719V89.9709C168.242 89.419 166.792 88.594 165.741 87.5764C164.724 86.5911 164.116 85.4589 163.97 84.2854L163.969 84.2864C163.966 84.2609 163.964 84.2347 163.961 84.2092C163.958 84.18 163.954 84.1505 163.951 84.1213L163.952 84.1203C163.941 83.991 163.937 83.8618 163.937 83.7327H163.935V81.7327H164.393C164.557 81.3827 164.764 81.0399 165.014 80.7082C165.84 79.6106 167.103 78.6691 168.675 77.9768H168.674C170.39 77.221 172.409 76.7917 174.494 76.7385Z" fill="#535353"/>
<path d="M180.419 75.772C182.064 76.379 183.426 77.2468 184.374 78.2866C185.308 79.31 185.806 80.4624 185.832 81.6333H175.158L180.419 75.772Z" fill="#1A1B1C" stroke="#656565" stroke-width="0.2"/>
<mask id="path-97-inside-27_2_360" fill="white">
<path d="M169.946 87.9717C171.675 88.5313 173.605 88.7903 175.542 88.7222C177.478 88.6541 179.352 88.2614 180.973 87.584L174.935 81.7328L169.946 87.9717Z"/>
</mask>
<path d="M169.946 87.9717C171.675 88.5313 173.605 88.7903 175.542 88.7222C177.478 88.6541 179.352 88.2614 180.973 87.584L174.935 81.7328L169.946 87.9717Z" fill="#1A1B1C" stroke="#656565" stroke-width="0.4" mask="url(#path-97-inside-27_2_360)"/>
<mask id="path-98-inside-28_2_360" fill="white">
<path d="M168.74 75.9482C167.138 76.6432 165.852 77.5955 165.014 78.7086C164.177 79.8216 163.816 81.0558 163.969 82.2861L174.935 81.7328L168.74 75.9482Z"/>
</mask>
<path d="M168.74 75.9482C167.138 76.6432 165.852 77.5955 165.014 78.7086C164.177 79.8216 163.816 81.0558 163.969 82.2861L174.935 81.7328L168.74 75.9482Z" fill="#1A1B1C" stroke="#656565" stroke-width="0.4" mask="url(#path-98-inside-28_2_360)"/>
<mask id="path-99-inside-29_2_360" fill="white">
<path d="M180.362 87.8216C182.067 87.2061 183.483 86.3118 184.463 85.2313C185.442 84.1508 185.95 82.9233 185.934 81.6758L174.935 81.7328L180.362 87.8216Z"/>
</mask>
<path d="M180.362 87.8216C182.067 87.2061 183.483 86.3118 184.463 85.2313C185.442 84.1508 185.95 82.9233 185.934 81.6758L174.935 81.7328L180.362 87.8216Z" fill="#39393C" stroke="#656565" stroke-width="0.4" mask="url(#path-99-inside-29_2_360)"/>
<mask id="path-100-inside-30_2_360" fill="white">
<path d="M163.952 82.1208C164.059 83.3531 164.677 84.5454 165.742 85.5768C166.807 86.6083 168.281 87.4422 170.016 87.994L174.935 81.7328L163.952 82.1208Z"/>
</mask>
<path d="M163.952 82.1208C164.059 83.3531 164.677 84.5454 165.742 85.5768C166.807 86.6083 168.281 87.4422 170.016 87.994L174.935 81.7328L163.952 82.1208Z" fill="#39393C" stroke="#656565" stroke-width="0.4" mask="url(#path-100-inside-30_2_360)"/>
<mask id="path-101-inside-31_2_360" fill="white">
<path d="M180.755 75.7929C178.882 75.0498 176.701 74.6824 174.496 74.7384C172.291 74.7944 170.163 75.2713 168.389 76.107L174.935 81.7328L180.755 75.7929Z"/>
</mask>
<path d="M180.755 75.7929C178.882 75.0498 176.701 74.6824 174.496 74.7384C172.291 74.7944 170.163 75.2713 168.389 76.107L174.935 81.7328L180.755 75.7929Z" fill="#39393C" stroke="#656565" stroke-width="0.4" mask="url(#path-101-inside-31_2_360)"/>
<path fill-rule="evenodd" clip-rule="evenodd" d="M195.494 83.7388C197.556 83.6862 199.6 84.0037 201.391 84.6548C201.405 84.6599 201.42 84.6653 201.434 84.6704C201.44 84.6726 201.446 84.6751 201.452 84.6772H201.451C203.109 85.2885 204.487 86.1646 205.449 87.2192C205.885 87.6981 206.228 88.2069 206.474 88.7329H206.935V90.7329H206.934C206.934 91.9604 206.428 93.1671 205.463 94.2309C204.603 95.1797 203.405 95.9846 201.972 96.5835L201.973 96.5845C201.773 96.6679 201.569 96.7471 201.363 96.8218L201.362 96.8208C199.889 97.3524 198.24 97.6624 196.542 97.7222C194.632 97.7893 192.727 97.537 191.016 96.9927V96.9936C191.001 96.989 190.987 96.9837 190.972 96.979C190.964 96.9763 190.955 96.9739 190.947 96.9712V96.9702C189.242 96.4183 187.793 95.594 186.742 94.5767C185.725 93.5913 185.116 92.4592 184.97 91.2856L184.969 91.2866C184.966 91.2595 184.963 91.2317 184.96 91.2046C184.957 91.1767 184.954 91.1485 184.951 91.1206L184.952 91.1196C184.941 90.9906 184.937 90.8617 184.937 90.7329H184.935V88.7329H185.393C185.557 88.3828 185.765 88.0403 186.015 87.7085C186.841 86.6109 188.103 85.6693 189.675 84.977H189.674C191.39 84.2212 193.409 83.792 195.494 83.7388Z" fill="#535353"/>
<path d="M201.419 82.772C203.064 83.379 204.426 84.2468 205.374 85.2866C206.308 86.31 206.806 87.4624 206.832 88.6333H196.158L201.419 82.772Z" fill="#1A1B1C" stroke="#656565" stroke-width="0.2"/>
<mask id="path-104-inside-32_2_360" fill="white">
<path d="M190.946 94.9717C192.675 95.5313 194.605 95.7903 196.542 95.7222C198.478 95.6541 200.352 95.2614 201.973 94.584L195.935 88.7328L190.946 94.9717Z"/>
</mask>
<path d="M190.946 94.9717C192.675 95.5313 194.605 95.7903 196.542 95.7222C198.478 95.6541 200.352 95.2614 201.973 94.584L195.935 88.7328L190.946 94.9717Z" fill="#1A1B1C" stroke="#656565" stroke-width="0.4" mask="url(#path-104-inside-32_2_360)"/>
<mask id="path-105-inside-33_2_360" fill="white">
<path d="M189.74 82.9482C188.138 83.6432 186.852 84.5955 186.014 85.7086C185.177 86.8216 184.816 88.0558 184.969 89.2861L195.935 88.7328L189.74 82.9482Z"/>
</mask>
<path d="M189.74 82.9482C188.138 83.6432 186.852 84.5955 186.014 85.7086C185.177 86.8216 184.816 88.0558 184.969 89.2861L195.935 88.7328L189.74 82.9482Z" fill="#1A1B1C" stroke="#656565" stroke-width="0.4" mask="url(#path-105-inside-33_2_360)"/>
<mask id="path-106-inside-34_2_360" fill="white">
<path d="M201.362 94.8216C203.067 94.2061 204.483 93.3118 205.463 92.2313C206.442 91.1508 206.95 89.9233 206.934 88.6758L195.935 88.7328L201.362 94.8216Z"/>
</mask>
<path d="M201.362 94.8216C203.067 94.2061 204.483 93.3118 205.463 92.2313C206.442 91.1508 206.95 89.9233 206.934 88.6758L195.935 88.7328L201.362 94.8216Z" fill="#39393C" stroke="#656565" stroke-width="0.4" mask="url(#path-106-inside-34_2_360)"/>
<mask id="path-107-inside-35_2_360" fill="white">
<path d="M184.952 89.1208C185.059 90.3531 185.677 91.5454 186.742 92.5768C187.807 93.6083 189.281 94.4422 191.016 94.994L195.935 88.7328L184.952 89.1208Z"/>
</mask>
<path d="M184.952 89.1208C185.059 90.3531 185.677 91.5454 186.742 92.5768C187.807 93.6083 189.281 94.4422 191.016 94.994L195.935 88.7328L184.952 89.1208Z" fill="#39393C" stroke="#656565" stroke-width="0.4" mask="url(#path-107-inside-35_2_360)"/>
<mask id="path-108-inside-36_2_360" fill="white">
<path d="M201.755 82.7929C199.882 82.0498 197.701 81.6824 195.496 81.7384C193.291 81.7944 191.163 82.2713 189.389 83.107L195.935 88.7328L201.755 82.7929Z"/>
</mask>
<path d="M201.755 82.7929C199.882 82.0498 197.701 81.6824 195.496 81.7384C193.291 81.7944 191.163 82.2713 189.389 83.107L195.935 88.7328L201.755 82.7929Z" fill="#39393C" stroke="#656565" stroke-width="0.4" mask="url(#path-108-inside-36_2_360)"/>
<path fill-rule="evenodd" clip-rule="evenodd" d="M216.494 91.739C218.556 91.6865 220.6 92.004 222.391 92.655C222.405 92.6601 222.42 92.6655 222.434 92.6706C222.44 92.6728 222.447 92.6753 222.452 92.6775H222.451C224.108 93.2888 225.487 94.1649 226.449 95.2195C226.885 95.6984 227.228 96.2071 227.474 96.7331H227.935V98.7331H227.934C227.934 99.9607 227.428 101.167 226.463 102.231C225.603 103.18 224.405 103.985 222.972 104.584L222.973 104.585C222.773 104.668 222.57 104.747 222.363 104.822L222.362 104.821C220.889 105.353 219.24 105.663 217.542 105.722C215.632 105.79 213.727 105.537 212.016 104.993V104.994C212.001 104.989 211.987 104.984 211.972 104.979C211.964 104.977 211.955 104.974 211.947 104.971V104.97C210.242 104.419 208.793 103.594 207.742 102.577C206.725 101.592 206.116 100.459 205.97 99.2859L205.969 99.2869C205.966 99.2597 205.963 99.232 205.96 99.2048C205.957 99.177 205.954 99.1488 205.951 99.1208L205.952 99.1199C205.941 98.9909 205.937 98.8619 205.937 98.7331H205.935V96.7331H206.393C206.557 96.383 206.765 96.0406 207.015 95.7087C207.841 94.6111 209.103 93.6696 210.675 92.9773H210.674C212.39 92.2215 214.409 91.7922 216.494 91.739Z" fill="#535353"/>
<path d="M222.419 90.772C224.064 91.379 225.426 92.2468 226.374 93.2866C227.308 94.31 227.806 95.4624 227.832 96.6333H217.158L222.419 90.772Z" fill="#1A1B1C" stroke="#656565" stroke-width="0.2"/>
<mask id="path-111-inside-37_2_360" fill="white">
<path d="M211.946 102.972C213.675 103.531 215.605 103.79 217.542 103.722C219.478 103.654 221.352 103.261 222.973 102.584L216.935 96.7328L211.946 102.972Z"/>
</mask>
<path d="M211.946 102.972C213.675 103.531 215.605 103.79 217.542 103.722C219.478 103.654 221.352 103.261 222.973 102.584L216.935 96.7328L211.946 102.972Z" fill="#1A1B1C" stroke="#656565" stroke-width="0.4" mask="url(#path-111-inside-37_2_360)"/>
<mask id="path-112-inside-38_2_360" fill="white">
<path d="M210.74 90.9482C209.138 91.6432 207.852 92.5955 207.014 93.7086C206.177 94.8216 205.816 96.0558 205.969 97.2861L216.935 96.7328L210.74 90.9482Z"/>
</mask>
<path d="M210.74 90.9482C209.138 91.6432 207.852 92.5955 207.014 93.7086C206.177 94.8216 205.816 96.0558 205.969 97.2861L216.935 96.7328L210.74 90.9482Z" fill="#1A1B1C" stroke="#656565" stroke-width="0.4" mask="url(#path-112-inside-38_2_360)"/>
<mask id="path-113-inside-39_2_360" fill="white">
<path d="M222.362 102.822C224.067 102.206 225.483 101.312 226.463 100.231C227.442 99.1508 227.95 97.9233 227.934 96.6758L216.935 96.7328L222.362 102.822Z"/>
</mask>
<path d="M222.362 102.822C224.067 102.206 225.483 101.312 226.463 100.231C227.442 99.1508 227.95 97.9233 227.934 96.6758L216.935 96.7328L222.362 102.822Z" fill="#39393C" stroke="#656565" stroke-width="0.4" mask="url(#path-113-inside-39_2_360)"/>
<mask id="path-114-inside-40_2_360" fill="white">
<path d="M205.952 97.1208C206.059 98.3531 206.677 99.5454 207.742 100.577C208.807 101.608 210.281 102.442 212.016 102.994L216.935 96.7328L205.952 97.1208Z"/>
</mask>
<path d="M205.952 97.1208C206.059 98.3531 206.677 99.5454 207.742 100.577C208.807 101.608 210.281 102.442 212.016 102.994L216.935 96.7328L205.952 97.1208Z" fill="#39393C" stroke="#656565" stroke-width="0.4" mask="url(#path-114-inside-40_2_360)"/>
<mask id="path-115-inside-41_2_360" fill="white">
<path d="M222.755 90.7929C220.882 90.0498 218.701 89.6824 216.496 89.7384C214.291 89.7944 212.163 90.2713 210.389 91.107L216.935 96.7328L222.755 90.7929Z"/>
</mask>
<path d="M222.755 90.7929C220.882 90.0498 218.701 89.6824 216.496 89.7384C214.291 89.7944 212.163 90.2713 210.389 91.107L216.935 96.7328L222.755 90.7929Z" fill="#39393C" stroke="#656565" stroke-width="0.4" mask="url(#path-115-inside-41_2_360)"/>
<path fill-rule="evenodd" clip-rule="evenodd" d="M172.494 91.739C174.556 91.6865 176.6 92.004 178.391 92.655C178.405 92.6601 178.42 92.6655 178.434 92.6706C178.44 92.6728 178.447 92.6753 178.452 92.6775H178.451C180.108 93.2888 181.487 94.1649 182.449 95.2195C182.885 95.6984 183.228 96.2071 183.474 96.7331H183.935V98.7331H183.934C183.934 99.9607 183.428 101.167 182.463 102.231C181.603 103.18 180.405 103.985 178.972 104.584L178.973 104.585C178.773 104.668 178.57 104.747 178.363 104.822L178.362 104.821C176.889 105.353 175.24 105.663 173.542 105.722C171.632 105.79 169.727 105.537 168.016 104.993V104.994C168.001 104.989 167.987 104.984 167.972 104.979C167.964 104.977 167.955 104.974 167.947 104.971V104.97C166.242 104.419 164.793 103.594 163.742 102.577C162.725 101.592 162.116 100.459 161.97 99.2859L161.969 99.2869C161.966 99.2597 161.963 99.232 161.96 99.2048C161.957 99.177 161.954 99.1488 161.951 99.1208L161.952 99.1199C161.941 98.9909 161.937 98.8619 161.937 98.7331H161.935V96.7331H162.393C162.557 96.383 162.765 96.0406 163.015 95.7087C163.841 94.6111 165.103 93.6696 166.675 92.9773H166.674C168.39 92.2215 170.409 91.7922 172.494 91.739Z" fill="#535353"/>
<path d="M178.419 90.772C180.064 91.379 181.426 92.2468 182.374 93.2866C183.308 94.31 183.806 95.4624 183.832 96.6333H173.158L178.419 90.772Z" fill="#1A1B1C" stroke="#656565" stroke-width="0.2"/>
<mask id="path-118-inside-42_2_360" fill="white">
<path d="M167.946 102.972C169.675 103.531 171.605 103.79 173.542 103.722C175.478 103.654 177.352 103.261 178.973 102.584L172.935 96.7328L167.946 102.972Z"/>
</mask>
<path d="M167.946 102.972C169.675 103.531 171.605 103.79 173.542 103.722C175.478 103.654 177.352 103.261 178.973 102.584L172.935 96.7328L167.946 102.972Z" fill="#1A1B1C" stroke="#656565" stroke-width="0.4" mask="url(#path-118-inside-42_2_360)"/>
<mask id="path-119-inside-43_2_360" fill="white">
<path d="M166.74 90.9482C165.138 91.6432 163.852 92.5955 163.014 93.7086C162.177 94.8216 161.816 96.0558 161.969 97.2861L172.935 96.7328L166.74 90.9482Z"/>
</mask>
<path d="M166.74 90.9482C165.138 91.6432 163.852 92.5955 163.014 93.7086C162.177 94.8216 161.816 96.0558 161.969 97.2861L172.935 96.7328L166.74 90.9482Z" fill="#1A1B1C" stroke="#656565" stroke-width="0.4" mask="url(#path-119-inside-43_2_360)"/>
<mask id="path-120-inside-44_2_360" fill="white">
<path d="M178.362 102.822C180.067 102.206 181.483 101.312 182.463 100.231C183.442 99.1508 183.95 97.9233 183.934 96.6758L172.935 96.7328L178.362 102.822Z"/>
</mask>
<path d="M178.362 102.822C180.067 102.206 181.483 101.312 182.463 100.231C183.442 99.1508 183.95 97.9233 183.934 96.6758L172.935 96.7328L178.362 102.822Z" fill="#39393C" stroke="#656565" stroke-width="0.4" mask="url(#path-120-inside-44_2_360)"/>
<mask id="path-121-inside-45_2_360" fill="white">
<path d="M161.952 97.1208C162.059 98.3531 162.677 99.5454 163.742 100.577C164.807 101.608 166.281 102.442 168.016 102.994L172.935 96.7328L161.952 97.1208Z"/>
</mask>
<path d="M161.952 97.1208C162.059 98.3531 162.677 99.5454 163.742 100.577C164.807 101.608 166.281 102.442 168.016 102.994L172.935 96.7328L161.952 97.1208Z" fill="#39393C" stroke="#656565" stroke-width="0.4" mask="url(#path-121-inside-45_2_360)"/>
<mask id="path-122-inside-46_2_360" fill="white">
<path d="M178.755 90.7929C176.882 90.0498 174.701 89.6824 172.496 89.7384C170.291 89.7944 168.163 90.2713 166.389 91.107L172.935 96.7328L178.755 90.7929Z"/>
</mask>
<path d="M178.755 90.7929C176.882 90.0498 174.701 89.6824 172.496 89.7384C170.291 89.7944 168.163 90.2713 166.389 91.107L172.935 96.7328L178.755 90.7929Z" fill="#39393C" stroke="#656565" stroke-width="0.4" mask="url(#path-122-inside-46_2_360)"/>
<path fill-rule="evenodd" clip-rule="evenodd" d="M193.494 99.7392C195.556 99.6867 197.6 100.004 199.391 100.655C199.405 100.66 199.42 100.666 199.434 100.671C199.44 100.673 199.447 100.676 199.452 100.678H199.451C201.108 101.289 202.487 102.165 203.449 103.22C203.885 103.698 204.227 104.207 204.473 104.732H204.935V106.733H204.934C204.934 107.961 204.428 109.168 203.463 110.231C202.603 111.18 201.405 111.985 199.972 112.584L199.973 112.585C199.773 112.668 199.57 112.748 199.363 112.822L199.362 112.821C197.889 113.353 196.24 113.663 194.542 113.723C192.632 113.79 190.727 113.537 189.016 112.993V112.994C189.001 112.989 188.986 112.984 188.972 112.979C188.964 112.977 188.955 112.974 188.947 112.972V112.971C187.243 112.419 185.793 111.594 184.742 110.577C183.725 109.592 183.116 108.46 182.97 107.286L182.969 107.287C182.966 107.26 182.963 107.232 182.96 107.205C182.957 107.177 182.954 107.149 182.951 107.121L182.952 107.12C182.941 106.991 182.937 106.861 182.937 106.732H182.935V104.732H183.394C183.558 104.383 183.765 104.041 184.015 103.709C184.841 102.611 186.103 101.67 187.675 100.978H187.674C189.39 100.222 191.409 99.7924 193.494 99.7392Z" fill="#535353"/>
<path d="M199.419 98.772C201.064 99.379 202.426 100.247 203.374 101.287C204.308 102.31 204.806 103.462 204.832 104.633H194.158L199.419 98.772Z" fill="#1A1B1C" stroke="#656565" stroke-width="0.2"/>
<mask id="path-125-inside-47_2_360" fill="white">
<path d="M188.946 110.972C190.675 111.531 192.605 111.79 194.542 111.722C196.478 111.654 198.352 111.261 199.973 110.584L193.935 104.733L188.946 110.972Z"/>
</mask>
<path d="M188.946 110.972C190.675 111.531 192.605 111.79 194.542 111.722C196.478 111.654 198.352 111.261 199.973 110.584L193.935 104.733L188.946 110.972Z" fill="#1A1B1C" stroke="#656565" stroke-width="0.4" mask="url(#path-125-inside-47_2_360)"/>
<mask id="path-126-inside-48_2_360" fill="white">
<path d="M187.74 98.9482C186.138 99.6432 184.852 100.596 184.014 101.709C183.177 102.822 182.816 104.056 182.969 105.286L193.935 104.733L187.74 98.9482Z"/>
</mask>
<path d="M187.74 98.9482C186.138 99.6432 184.852 100.596 184.014 101.709C183.177 102.822 182.816 104.056 182.969 105.286L193.935 104.733L187.74 98.9482Z" fill="#1A1B1C" stroke="#656565" stroke-width="0.4" mask="url(#path-126-inside-48_2_360)"/>
<mask id="path-127-inside-49_2_360" fill="white">
<path d="M199.362 110.822C201.067 110.206 202.483 109.312 203.463 108.231C204.442 107.151 204.95 105.923 204.934 104.676L193.935 104.733L199.362 110.822Z"/>
</mask>
<path d="M199.362 110.822C201.067 110.206 202.483 109.312 203.463 108.231C204.442 107.151 204.95 105.923 204.934 104.676L193.935 104.733L199.362 110.822Z" fill="#39393C" stroke="#656565" stroke-width="0.4" mask="url(#path-127-inside-49_2_360)"/>
<mask id="path-128-inside-50_2_360" fill="white">
<path d="M182.952 105.121C183.059 106.353 183.677 107.545 184.742 108.577C185.807 109.608 187.281 110.442 189.016 110.994L193.935 104.733L182.952 105.121Z"/>
</mask>
<path d="M182.952 105.121C183.059 106.353 183.677 107.545 184.742 108.577C185.807 109.608 187.281 110.442 189.016 110.994L193.935 104.733L182.952 105.121Z" fill="#39393C" stroke="#656565" stroke-width="0.4" mask="url(#path-128-inside-50_2_360)"/>
<mask id="path-129-inside-51_2_360" fill="white">
<path d="M199.755 98.7929C197.882 98.0498 195.701 97.6824 193.496 97.7384C191.291 97.7944 189.163 98.2713 187.389 99.107L193.935 104.733L199.755 98.7929Z"/>
</mask>
<path d="M199.755 98.7929C197.882 98.0498 195.701 97.6824 193.496 97.7384C191.291 97.7944 189.163 98.2713 187.389 99.107L193.935 104.733L199.755 98.7929Z" fill="#39393C" stroke="#656565" stroke-width="0.4" mask="url(#path-129-inside-51_2_360)"/>
<path d="M137.113 165.731L161.435 171.733L152.818 184.523L128.245 178.396L137.113 165.731Z" fill="#363636"/>
<path d="M137.112 162.733L161.435 169.233L152.508 181.966L127.935 175.839L137.112 162.733Z" fill="#726C75"/>
<path d="M148.157 173.598L141.935 156.904L157.935 155.733L156.453 172.426C155.031 175.941 150.33 174.672 148.157 173.598Z" fill="#4E4E4E"/>
<path d="M144.435 166.233L133.935 137.733L160.935 135.733L158.435 164.233C156.035 170.233 148.102 168.066 144.435 166.233Z" fill="#626064"/>
<ellipse cx="147.435" cy="136.233" rx="13.5" ry="9.5" fill="#3B3B3B"/>
<path d="M141.935 170.358L133.627 149.733L121.935 159.227L134.858 174.614C138.058 175.4 140.909 172.104 141.935 170.358Z" fill="#4E4E4E"/>
<path d="M140.435 163.733L126.935 132.233L107.935 146.733L128.935 170.233C134.135 171.433 138.768 166.4 140.435 163.733Z" fill="#626064"/>
<ellipse cx="117.351" cy="139.479" rx="11.9273" ry="3.1747" transform="rotate(-37.2459 117.351 139.479)" fill="#3B3B3B"/>
<path d="M128.435 178.233L127.935 175.733L152.435 182.233L161.435 169.233V171.733L152.435 183.733L128.435 178.233Z" fill="#363636"/>
</svg>
