<svg xmlns="http://www.w3.org/2000/svg" width="613" height="622" fill="#ffffff80"><circle cx="197" cy="88" r="1"/><circle cx="166" cy="61" r="1"/><circle cx="139" cy="70" r="1"/><circle cx="79" cy="73" r="1"/><circle cx="111" cy="73" r="1"/><circle cx="150" cy="112" r="1"/><circle cx="110" cy="112" r="1"/><circle cx="80" cy="103" r="1"/><circle cx="45" cy="116" r="1"/><circle cx="45" cy="147" r="1"/><circle cx="304" cy="147" r="1"/><circle cx="102" cy="29" r="1"/><circle cx="82" cy="49" r="1"/><circle cx="109" cy="49" r="1"/><circle cx="55" cy="71" r="1"/><circle cx="67" cy="127" r="1"/><circle cx="35" cy="192" r="1"/><circle cx="30" cy="131" r="1"/><circle cx="74" cy="142" r="1"/><circle cx="91" cy="124" r="1"/><circle cx="91" cy="156" r="1"/><circle cx="57" cy="156" r="1"/><circle cx="30" cy="166" r="1"/><circle cx="50" cy="183" r="1"/><circle cx="66" cy="179" r="1"/><circle cx="48" cy="203" r="1"/><circle cx="59" cy="220" r="1"/><circle cx="72" cy="207" r="1"/><circle cx="89" cy="224" r="1"/><circle cx="279" cy="115" r="1"/><circle cx="269" cy="65" r="1"/><circle cx="211" cy="65" r="1"/><circle cx="161" cy="100" r="1"/><circle cx="193" cy="100" r="1"/><circle cx="232" cy="139" r="1"/><circle cx="192" cy="139" r="1"/><circle cx="162" cy="130" r="1"/><circle cx="127" cy="143" r="1"/><circle cx="127" cy="174" r="1"/><circle cx="184" cy="56" r="1"/><circle cx="164" cy="76" r="1"/><circle cx="180" cy="111" r="1"/><circle cx="137" cy="98" r="1"/><circle cx="149" cy="154" r="1"/><circle cx="117" cy="219" r="1"/><circle cx="112" cy="158" r="1"/><circle cx="156" cy="169" r="1"/><circle cx="173" cy="151" r="1"/><circle cx="173" cy="183" r="1"/><circle cx="139" cy="183" r="1"/><circle cx="112" cy="193" r="1"/><circle cx="132" cy="210" r="1"/><circle cx="148" cy="206" r="1"/><circle cx="130" cy="230" r="1"/><circle cx="141" cy="247" r="1"/><circle cx="154" cy="234" r="1"/><circle cx="115" cy="251" r="1"/><circle cx="104.366" cy="186.145" r="1" transform="rotate(-150 104.366 186.145)"/><circle cx="113.366" cy="271.366" r="1" transform="rotate(-150 113.366 271.366)"/><circle cx="138.256" cy="263.447" r="1" transform="rotate(-150 138.256 263.447)"/><circle cx="199.366" cy="239.366" r="1" transform="rotate(-150 199.366 239.366)"/><circle cx="171.344" cy="242.136" r="1" transform="rotate(-150 171.344 242.136)"/><circle cx="157.069" cy="188.861" r="1" transform="rotate(-150 157.069 188.861)"/><circle cx="191.71" cy="208.861" r="1" transform="rotate(-150 191.71 208.861)"/><circle cx="213.191" cy="231.655" r="1" transform="rotate(-150 213.191 231.655)"/><circle cx="211.366" cy="251.366" r="1" transform="rotate(-150 211.366 251.366)"/><circle cx="243.366" cy="265.366" r="1" transform="rotate(-150 243.366 265.366)"/><circle cx="286.366" cy="221.366" r="1" transform="rotate(-150 286.366 221.366)"/><circle cx="189.366" cy="256.366" r="1" transform="rotate(-150 189.366 256.366)"/><circle cx="250.002" cy="237.897" r="1" transform="rotate(-150 250.002 237.897)"/><circle cx="265.502" cy="211.05" r="1" transform="rotate(-150 265.502 211.05)"/><circle cx="157.138" cy="284.741" r="1" transform="rotate(-150 157.138 284.741)"/><circle cx="184.459" cy="277.42" r="1" transform="rotate(-150 184.459 277.42)"/><circle cx="161.076" cy="263.92" r="1" transform="rotate(-150 161.076 263.92)"/><circle cx="218.842" cy="271.868" r="1" transform="rotate(-150 218.842 271.868)"/><circle cx="236.449" cy="217.37" r="1" transform="rotate(-150 236.449 217.37)"/><circle cx="296.662" cy="177.079" r="1" transform="rotate(-150 296.662 177.079)"/><circle cx="270.492" cy="232.406" r="1" transform="rotate(-150 270.492 232.406)"/><circle cx="237.887" cy="200.88" r="1" transform="rotate(-150 237.887 200.88)"/><circle cx="214.165" cy="207.969" r="1" transform="rotate(-150 214.165 207.969)"/><circle cx="230.165" cy="180.256" r="1" transform="rotate(-150 230.165 180.256)"/><circle cx="259.61" cy="197.256" r="1" transform="rotate(-150 259.61 197.256)"/><circle cx="287.992" cy="202.095" r="1" transform="rotate(-150 287.992 202.095)"/><circle cx="279.172" cy="177.373" r="1" transform="rotate(-150 279.172 177.373)"/><circle cx="263.315" cy="172.837" r="1" transform="rotate(-150 263.315 172.837)"/><circle cx="290.904" cy="161.053" r="1" transform="rotate(-150 290.904 161.053)"/><circle cx="289.878" cy="140.83" r="1" transform="rotate(-150 289.878 140.83)"/><circle cx="242.366" cy="113.366" r="1" transform="rotate(-150 242.366 113.366)"/><circle cx="265.897" cy="122.366" r="1" transform="rotate(-150 265.897 122.366)"/><circle cx="194.146" cy="198.662" r="1" transform="rotate(120 194.146 198.662)"/><circle cx="183.366" cy="167.366" r="1" transform="rotate(120 183.366 167.366)"/><circle cx="271.447" cy="164.772" r="1" transform="rotate(120 271.447 164.772)"/><circle cx="266.136" cy="103.971" r="1" transform="rotate(120 266.136 103.971)"/><circle cx="250.136" cy="131.684" r="1" transform="rotate(120 250.136 131.684)"/><circle cx="204.366" cy="145.366" r="1" transform="rotate(120 204.366 145.366)"/><circle cx="216.861" cy="111.318" r="1" transform="rotate(120 216.861 111.318)"/><circle cx="239.655" cy="89.837" r="1" transform="rotate(120 239.655 89.837)"/><circle cx="245.897" cy="53.026" r="1" transform="rotate(120 245.897 53.026)"/><circle cx="219.05" cy="37.526" r="1" transform="rotate(120 219.05 37.526)"/><circle cx="245.366" cy="152.366" r="1" transform="rotate(120 245.366 152.366)"/><circle cx="205.366" cy="168.366" r="1" transform="rotate(120 205.366 168.366)"/><circle cx="271.92" cy="141.952" r="1" transform="rotate(120 271.92 141.952)"/><circle cx="279.868" cy="84.186" r="1" transform="rotate(120 279.868 84.186)"/><circle cx="225.371" cy="66.579" r="1" transform="rotate(120 225.371 66.579)"/><circle cx="185.079" cy="6.366" r="1" transform="rotate(120 185.079 6.366)"/><circle cx="240.406" cy="32.536" r="1" transform="rotate(120 240.406 32.536)"/><circle cx="303.366" cy="114.366" r="1" transform="rotate(120 303.366 114.366)"/><circle cx="215.969" cy="88.864" r="1" transform="rotate(120 215.969 88.864)"/><circle cx="188.256" cy="72.864" r="1" transform="rotate(120 188.256 72.864)"/><circle cx="205.256" cy="43.419" r="1" transform="rotate(120 205.256 43.419)"/><circle cx="210.096" cy="15.036" r="1" transform="rotate(120 210.096 15.036)"/><circle cx="185.373" cy="23.856" r="1" transform="rotate(120 185.373 23.856)"/><circle cx="180.837" cy="39.713" r="1" transform="rotate(120 180.837 39.713)"/><circle cx="169.053" cy="12.124" r="1" transform="rotate(120 169.053 12.124)"/><circle cx="148.83" cy="13.151" r="1" transform="rotate(120 148.83 13.15)"/><circle cx="153.588" cy="30.909" r="1" transform="rotate(120 153.588 30.909)"/><circle cx="130.366" cy="37.131" r="1" transform="rotate(120 130.366 37.131)"/><circle cx="75" cy="238" r="1"/><circle cx="93" cy="252" r="1"/><circle cx="490" cy="84" r="1"/><circle cx="459" cy="57" r="1"/><circle cx="432" cy="66" r="1"/><circle cx="372" cy="69" r="1"/><circle cx="404" cy="69" r="1"/><circle cx="443" cy="108" r="1"/><circle cx="403" cy="108" r="1"/><circle cx="373" cy="99" r="1"/><circle cx="338" cy="112" r="1"/><circle cx="338" cy="143" r="1"/><circle cx="597" cy="143" r="1"/><circle cx="395" cy="25" r="1"/><circle cx="375" cy="45" r="1"/><circle cx="402" cy="45" r="1"/><circle cx="348" cy="67" r="1"/><circle cx="360" cy="123" r="1"/><circle cx="328" cy="188" r="1"/><circle cx="323" cy="127" r="1"/><circle cx="367" cy="138" r="1"/><circle cx="384" cy="120" r="1"/><circle cx="384" cy="152" r="1"/><circle cx="350" cy="152" r="1"/><circle cx="323" cy="162" r="1"/><circle cx="343" cy="179" r="1"/><circle cx="359" cy="175" r="1"/><circle cx="341" cy="199" r="1"/><circle cx="352" cy="216" r="1"/><circle cx="365" cy="203" r="1"/><circle cx="382" cy="220" r="1"/><circle cx="572" cy="111" r="1"/><circle cx="562" cy="61" r="1"/><circle cx="504" cy="61" r="1"/><circle cx="454" cy="96" r="1"/><circle cx="486" cy="96" r="1"/><circle cx="525" cy="135" r="1"/><circle cx="485" cy="135" r="1"/><circle cx="455" cy="126" r="1"/><circle cx="420" cy="139" r="1"/><circle cx="420" cy="170" r="1"/><circle cx="477" cy="52" r="1"/><circle cx="457" cy="72" r="1"/><circle cx="473" cy="107" r="1"/><circle cx="430" cy="94" r="1"/><circle cx="442" cy="150" r="1"/><circle cx="410" cy="215" r="1"/><circle cx="405" cy="154" r="1"/><circle cx="449" cy="165" r="1"/><circle cx="466" cy="147" r="1"/><circle cx="466" cy="179" r="1"/><circle cx="432" cy="179" r="1"/><circle cx="405" cy="189" r="1"/><circle cx="425" cy="206" r="1"/><circle cx="441" cy="202" r="1"/><circle cx="423" cy="226" r="1"/><circle cx="434" cy="243" r="1"/><circle cx="447" cy="230" r="1"/><circle cx="408" cy="247" r="1"/><circle cx="397.366" cy="182.145" r="1" transform="rotate(-150 397.366 182.145)"/><circle cx="406.366" cy="267.366" r="1" transform="rotate(-150 406.366 267.366)"/><circle cx="431.256" cy="259.447" r="1" transform="rotate(-150 431.256 259.447)"/><circle cx="492.366" cy="235.366" r="1" transform="rotate(-150 492.366 235.366)"/><circle cx="464.344" cy="238.136" r="1" transform="rotate(-150 464.344 238.136)"/><circle cx="450.069" cy="184.861" r="1" transform="rotate(-150 450.069 184.861)"/><circle cx="484.71" cy="204.861" r="1" transform="rotate(-150 484.71 204.861)"/><circle cx="506.191" cy="227.655" r="1" transform="rotate(-150 506.191 227.655)"/><circle cx="504.366" cy="247.366" r="1" transform="rotate(-150 504.366 247.366)"/><circle cx="536.366" cy="261.366" r="1" transform="rotate(-150 536.366 261.366)"/><circle cx="579.366" cy="217.366" r="1" transform="rotate(-150 579.366 217.366)"/><circle cx="482.366" cy="252.366" r="1" transform="rotate(-150 482.366 252.366)"/><circle cx="543.002" cy="233.897" r="1" transform="rotate(-150 543.002 233.897)"/><circle cx="558.502" cy="207.05" r="1" transform="rotate(-150 558.502 207.05)"/><circle cx="450.138" cy="280.741" r="1" transform="rotate(-150 450.138 280.741)"/><circle cx="477.459" cy="273.42" r="1" transform="rotate(-150 477.459 273.42)"/><circle cx="454.076" cy="259.92" r="1" transform="rotate(-150 454.076 259.92)"/><circle cx="511.842" cy="267.868" r="1" transform="rotate(-150 511.842 267.868)"/><circle cx="529.449" cy="213.37" r="1" transform="rotate(-150 529.449 213.37)"/><circle cx="589.662" cy="173.079" r="1" transform="rotate(-150 589.662 173.079)"/><circle cx="563.492" cy="228.406" r="1" transform="rotate(-150 563.492 228.406)"/><circle cx="530.887" cy="196.88" r="1" transform="rotate(-150 530.887 196.88)"/><circle cx="507.165" cy="203.969" r="1" transform="rotate(-150 507.165 203.969)"/><circle cx="523.165" cy="176.256" r="1" transform="rotate(-150 523.165 176.256)"/><circle cx="552.61" cy="193.256" r="1" transform="rotate(-150 552.61 193.256)"/><circle cx="580.992" cy="198.095" r="1" transform="rotate(-150 580.992 198.095)"/><circle cx="572.172" cy="173.373" r="1" transform="rotate(-150 572.172 173.373)"/><circle cx="556.315" cy="168.837" r="1" transform="rotate(-150 556.315 168.837)"/><circle cx="583.904" cy="157.053" r="1" transform="rotate(-150 583.904 157.053)"/><circle cx="582.878" cy="136.83" r="1" transform="rotate(-150 582.878 136.83)"/><circle cx="535.366" cy="109.366" r="1" transform="rotate(-150 535.366 109.366)"/><circle cx="558.897" cy="118.366" r="1" transform="rotate(-150 558.897 118.366)"/><circle cx="487.146" cy="194.662" r="1" transform="rotate(120 487.146 194.662)"/><circle cx="476.366" cy="163.366" r="1" transform="rotate(120 476.366 163.366)"/><circle cx="564.447" cy="160.772" r="1" transform="rotate(120 564.447 160.772)"/><circle cx="559.136" cy="99.971" r="1" transform="rotate(120 559.136 99.971)"/><circle cx="543.136" cy="127.684" r="1" transform="rotate(120 543.136 127.684)"/><circle cx="497.366" cy="141.366" r="1" transform="rotate(120 497.366 141.366)"/><circle cx="509.861" cy="107.318" r="1" transform="rotate(120 509.861 107.318)"/><circle cx="532.655" cy="85.837" r="1" transform="rotate(120 532.655 85.837)"/><circle cx="538.897" cy="49.026" r="1" transform="rotate(120 538.897 49.026)"/><circle cx="512.05" cy="33.526" r="1" transform="rotate(120 512.05 33.526)"/><circle cx="538.366" cy="148.366" r="1" transform="rotate(120 538.366 148.366)"/><circle cx="498.366" cy="164.366" r="1" transform="rotate(120 498.366 164.366)"/><circle cx="564.92" cy="137.952" r="1" transform="rotate(120 564.92 137.952)"/><circle cx="572.868" cy="80.186" r="1" transform="rotate(120 572.868 80.186)"/><circle cx="518.371" cy="62.579" r="1" transform="rotate(120 518.371 62.579)"/><circle cx="478.079" cy="2.366" r="1" transform="rotate(120 478.079 2.366)"/><circle cx="533.406" cy="28.536" r="1" transform="rotate(120 533.406 28.536)"/><circle cx="350.711" cy="277.83" r="1"/><circle cx="340.711" cy="227.83" r="1"/><circle cx="361.589" cy="303.66" r="1" transform="rotate(-150 361.589 303.66)"/><circle cx="314.077" cy="276.196" r="1" transform="rotate(-150 314.077 276.196)"/><circle cx="337.608" cy="285.196" r="1" transform="rotate(-150 337.608 285.196)"/><circle cx="337.847" cy="266.801" r="1" transform="rotate(120 337.847 266.801)"/><circle cx="321.847" cy="294.514" r="1" transform="rotate(120 321.847 294.514)"/><circle cx="311.366" cy="252.667" r="1" transform="rotate(120 311.366 252.667)"/><circle cx="317.608" cy="215.857" r="1" transform="rotate(120 317.608 215.857)"/><circle cx="317.077" cy="315.196" r="1" transform="rotate(120 317.077 315.196)"/><circle cx="343.631" cy="304.782" r="1" transform="rotate(120 343.631 304.782)"/><circle cx="351.579" cy="247.017" r="1" transform="rotate(120 351.579 247.017)"/><circle cx="312.117" cy="195.366" r="1" transform="rotate(120 312.117 195.366)"/><circle cx="251.028" cy="336.591" r="1" transform="rotate(147.728 251.028 336.591)"/><circle cx="286.18" cy="373.528" r="1" transform="rotate(147.728 286.18 373.528)"/><circle cx="228.039" cy="320.559" r="1" transform="rotate(-2.272 228.039 320.559)"/><circle cx="282.875" cy="318.412" r="1" transform="rotate(-2.272 282.875 318.412)"/><circle cx="258.174" cy="323.367" r="1" transform="rotate(-2.272 258.174 323.367)"/><circle cx="267.793" cy="339.048" r="1" transform="rotate(-92.272 267.793 339.048)"/><circle cx="266.525" cy="307.073" r="1" transform="rotate(-92.272 266.525 307.073)"/><circle cx="297.73" cy="336.859" r="1" transform="rotate(-92.272 297.73 336.859)"/><circle cx="312.108" cy="371.316" r="1" transform="rotate(-92.272 312.108 371.316)"/><circle cx="259.515" cy="287.039" r="1" transform="rotate(-92.272 259.515 287.039)"/><circle cx="242.623" cy="310.023" r="1" transform="rotate(-92.272 242.623 310.023)"/><circle cx="266.746" cy="363.108" r="1" transform="rotate(-92.272 266.746 363.108)"/><circle cx="327.69" cy="385.71" r="1" transform="rotate(-92.272 327.69 385.71)"/><circle cx="596.366" cy="110.366" r="1" transform="rotate(120 596.366 110.366)"/><circle cx="508.969" cy="84.864" r="1" transform="rotate(120 508.969 84.864)"/><circle cx="481.256" cy="68.864" r="1" transform="rotate(120 481.256 68.864)"/><circle cx="498.256" cy="39.419" r="1" transform="rotate(120 498.256 39.419)"/><circle cx="503.096" cy="11.036" r="1" transform="rotate(120 503.096 11.036)"/><circle cx="478.373" cy="19.856" r="1" transform="rotate(120 478.373 19.856)"/><circle cx="473.837" cy="35.713" r="1" transform="rotate(120 473.837 35.713)"/><circle cx="462.053" cy="8.124" r="1" transform="rotate(120 462.053 8.124)"/><circle cx="292" cy="106" r="1"/><circle cx="310" cy="101" r="1"/><circle cx="311.079" cy="51.366" r="1" transform="rotate(120 311.079 51.366)"/><circle cx="331.256" cy="88.418" r="1" transform="rotate(120 331.256 88.418)"/><circle cx="336.096" cy="60.036" r="1" transform="rotate(120 336.096 60.036)"/><circle cx="311.373" cy="68.856" r="1" transform="rotate(120 311.373 68.856)"/><circle cx="306.837" cy="84.713" r="1" transform="rotate(120 306.837 84.713)"/><circle cx="295.053" cy="57.124" r="1" transform="rotate(120 295.053 57.124)"/><circle cx="323" cy="56" r="1"/><circle cx="341" cy="51" r="1"/><circle cx="342.079" cy="1.366" r="1" transform="rotate(120 342.079 1.366)"/><circle cx="362.256" cy="38.419" r="1" transform="rotate(120 362.256 38.419)"/><circle cx="367.096" cy="10.036" r="1" transform="rotate(120 367.096 10.036)"/><circle cx="342.373" cy="18.856" r="1" transform="rotate(120 342.373 18.856)"/><circle cx="337.837" cy="34.713" r="1" transform="rotate(120 337.837 34.713)"/><circle cx="326.053" cy="7.124" r="1" transform="rotate(120 326.053 7.124)"/><circle cx="320.87" cy="35.476" r="1" transform="rotate(-111.03 320.87 35.476)"/><circle cx="309.744" cy="20.469" r="1" transform="rotate(-111.03 309.744 20.469)"/><circle cx="263.029" cy="37.273" r="1" transform="rotate(8.97 263.029 37.273)"/><circle cx="290.373" cy="5.144" r="1" transform="rotate(8.97 290.373 5.144)"/><circle cx="262.144" cy="10.811" r="1" transform="rotate(8.97 262.144 10.811)"/><circle cx="279.248" cy="30.722" r="1" transform="rotate(8.97 279.248 30.722)"/><circle cx="295.677" cy="29.266" r="1" transform="rotate(8.97 295.677 29.266)"/><circle cx="274.154" cy="50.166" r="1" transform="rotate(8.97 274.154 50.166)"/><circle cx="441.83" cy="9.151" r="1" transform="rotate(120 441.83 9.15)"/><circle cx="446.588" cy="26.909" r="1" transform="rotate(120 446.588 26.909)"/><circle cx="423.366" cy="33.131" r="1" transform="rotate(120 423.366 33.131)"/><circle cx="368" cy="234" r="1"/><circle cx="386" cy="248" r="1"/><circle cx="198" cy="416" r="1"/><circle cx="167" cy="389" r="1"/><circle cx="140" cy="398" r="1"/><circle cx="80" cy="401" r="1"/><circle cx="112" cy="401" r="1"/><circle cx="151" cy="440" r="1"/><circle cx="111" cy="440" r="1"/><circle cx="81" cy="431" r="1"/><circle cx="46" cy="444" r="1"/><circle cx="46" cy="475" r="1"/><circle cx="305" cy="475" r="1"/><circle cx="103" cy="357" r="1"/><circle cx="83" cy="377" r="1"/><circle cx="110" cy="377" r="1"/><circle cx="56" cy="399" r="1"/><circle cx="68" cy="455" r="1"/><circle cx="36" cy="520" r="1"/><circle cx="31" cy="459" r="1"/><circle cx="75" cy="470" r="1"/><circle cx="92" cy="452" r="1"/><circle cx="92" cy="484" r="1"/><circle cx="58" cy="484" r="1"/><circle cx="31" cy="494" r="1"/><circle cx="51" cy="511" r="1"/><circle cx="67" cy="507" r="1"/><circle cx="49" cy="531" r="1"/><circle cx="60" cy="548" r="1"/><circle cx="73" cy="535" r="1"/><circle cx="90" cy="552" r="1"/><circle cx="280" cy="443" r="1"/><circle cx="270" cy="393" r="1"/><circle cx="212" cy="393" r="1"/><circle cx="162" cy="428" r="1"/><circle cx="194" cy="428" r="1"/><circle cx="233" cy="467" r="1"/><circle cx="193" cy="467" r="1"/><circle cx="163" cy="458" r="1"/><circle cx="128" cy="471" r="1"/><circle cx="128" cy="502" r="1"/><circle cx="185" cy="384" r="1"/><circle cx="165" cy="404" r="1"/><circle cx="181" cy="439" r="1"/><circle cx="138" cy="426" r="1"/><circle cx="150" cy="482" r="1"/><circle cx="118" cy="547" r="1"/><circle cx="113" cy="486" r="1"/><circle cx="157" cy="497" r="1"/><circle cx="174" cy="479" r="1"/><circle cx="174" cy="511" r="1"/><circle cx="140" cy="511" r="1"/><circle cx="113" cy="521" r="1"/><circle cx="133" cy="538" r="1"/><circle cx="149" cy="534" r="1"/><circle cx="131" cy="558" r="1"/><circle cx="142" cy="575" r="1"/><circle cx="155" cy="562" r="1"/><circle cx="116" cy="579" r="1"/><circle cx="105.366" cy="514.145" r="1" transform="rotate(-150 105.366 514.145)"/><circle cx="114.366" cy="599.366" r="1" transform="rotate(-150 114.366 599.366)"/><circle cx="139.256" cy="591.447" r="1" transform="rotate(-150 139.256 591.447)"/><circle cx="200.366" cy="567.366" r="1" transform="rotate(-150 200.366 567.366)"/><circle cx="172.344" cy="570.136" r="1" transform="rotate(-150 172.344 570.136)"/><circle cx="158.069" cy="516.861" r="1" transform="rotate(-150 158.069 516.861)"/><circle cx="192.71" cy="536.861" r="1" transform="rotate(-150 192.71 536.861)"/><circle cx="214.191" cy="559.655" r="1" transform="rotate(-150 214.191 559.655)"/><circle cx="212.366" cy="579.366" r="1" transform="rotate(-150 212.366 579.366)"/><circle cx="244.366" cy="593.366" r="1" transform="rotate(-150 244.366 593.366)"/><circle cx="287.366" cy="549.366" r="1" transform="rotate(-150 287.366 549.366)"/><circle cx="190.366" cy="584.366" r="1" transform="rotate(-150 190.366 584.366)"/><circle cx="251.002" cy="565.897" r="1" transform="rotate(-150 251.002 565.897)"/><circle cx="266.502" cy="539.05" r="1" transform="rotate(-150 266.502 539.05)"/><circle cx="158.138" cy="612.741" r="1" transform="rotate(-150 158.138 612.741)"/><circle cx="185.459" cy="605.42" r="1" transform="rotate(-150 185.459 605.42)"/><circle cx="162.076" cy="591.92" r="1" transform="rotate(-150 162.076 591.92)"/><circle cx="219.842" cy="599.868" r="1" transform="rotate(-150 219.842 599.868)"/><circle cx="237.449" cy="545.37" r="1" transform="rotate(-150 237.449 545.37)"/><circle cx="297.662" cy="505.079" r="1" transform="rotate(-150 297.662 505.079)"/><circle cx="271.492" cy="560.406" r="1" transform="rotate(-150 271.492 560.406)"/><circle cx="238.887" cy="528.88" r="1" transform="rotate(-150 238.887 528.88)"/><circle cx="215.165" cy="535.969" r="1" transform="rotate(-150 215.165 535.969)"/><circle cx="231.165" cy="508.256" r="1" transform="rotate(-150 231.165 508.256)"/><circle cx="260.61" cy="525.256" r="1" transform="rotate(-150 260.61 525.256)"/><circle cx="288.992" cy="530.095" r="1" transform="rotate(-150 288.992 530.095)"/><circle cx="280.172" cy="505.373" r="1" transform="rotate(-150 280.172 505.373)"/><circle cx="264.315" cy="500.837" r="1" transform="rotate(-150 264.315 500.837)"/><circle cx="291.904" cy="489.053" r="1" transform="rotate(-150 291.904 489.053)"/><circle cx="290.878" cy="468.83" r="1" transform="rotate(-150 290.878 468.83)"/><circle cx="243.366" cy="441.366" r="1" transform="rotate(-150 243.366 441.366)"/><circle cx="266.897" cy="450.366" r="1" transform="rotate(-150 266.897 450.366)"/><circle cx="195.146" cy="526.662" r="1" transform="rotate(120 195.146 526.662)"/><circle cx="184.366" cy="495.366" r="1" transform="rotate(120 184.366 495.366)"/><circle cx="272.447" cy="492.772" r="1" transform="rotate(120 272.447 492.772)"/><circle cx="267.136" cy="431.971" r="1" transform="rotate(120 267.136 431.971)"/><circle cx="251.136" cy="459.684" r="1" transform="rotate(120 251.136 459.684)"/><circle cx="205.366" cy="473.366" r="1" transform="rotate(120 205.366 473.366)"/><circle cx="217.861" cy="439.318" r="1" transform="rotate(120 217.861 439.318)"/><circle cx="240.655" cy="417.837" r="1" transform="rotate(120 240.655 417.837)"/><circle cx="246.897" cy="381.026" r="1" transform="rotate(120 246.897 381.026)"/><circle cx="220.05" cy="365.526" r="1" transform="rotate(120 220.05 365.526)"/><circle cx="246.366" cy="480.366" r="1" transform="rotate(120 246.366 480.366)"/><circle cx="206.366" cy="496.366" r="1" transform="rotate(120 206.366 496.366)"/><circle cx="272.92" cy="469.952" r="1" transform="rotate(120 272.92 469.952)"/><circle cx="280.868" cy="412.186" r="1" transform="rotate(120 280.868 412.186)"/><circle cx="226.371" cy="394.579" r="1" transform="rotate(120 226.371 394.579)"/><circle cx="186.079" cy="334.366" r="1" transform="rotate(120 186.079 334.366)"/><circle cx="241.406" cy="360.536" r="1" transform="rotate(120 241.406 360.536)"/><circle cx="304.366" cy="442.366" r="1" transform="rotate(120 304.366 442.366)"/><circle cx="216.969" cy="416.863" r="1" transform="rotate(120 216.969 416.863)"/><circle cx="189.256" cy="400.863" r="1" transform="rotate(120 189.256 400.863)"/><circle cx="206.256" cy="371.419" r="1" transform="rotate(120 206.256 371.419)"/><circle cx="211.096" cy="343.036" r="1" transform="rotate(120 211.096 343.036)"/><circle cx="186.373" cy="351.856" r="1" transform="rotate(120 186.373 351.856)"/><circle cx="181.837" cy="367.713" r="1" transform="rotate(120 181.837 367.713)"/><circle cx="170.053" cy="340.124" r="1" transform="rotate(120 170.053 340.124)"/><circle cx="149.83" cy="341.151" r="1" transform="rotate(120 149.83 341.151)"/><circle cx="154.588" cy="358.909" r="1" transform="rotate(120 154.588 358.909)"/><circle cx="131.366" cy="365.131" r="1" transform="rotate(120 131.366 365.131)"/><circle cx="76" cy="566" r="1"/><circle cx="94" cy="580" r="1"/><circle cx="491" cy="412" r="1"/><circle cx="460" cy="385" r="1"/><circle cx="433" cy="394" r="1"/><circle cx="373" cy="397" r="1"/><circle cx="405" cy="397" r="1"/><circle cx="444" cy="436" r="1"/><circle cx="404" cy="436" r="1"/><circle cx="374" cy="427" r="1"/><circle cx="339" cy="440" r="1"/><circle cx="339" cy="471" r="1"/><circle cx="598" cy="471" r="1"/><circle cx="396" cy="353" r="1"/><circle cx="376" cy="373" r="1"/><circle cx="403" cy="373" r="1"/><circle cx="349" cy="395" r="1"/><circle cx="361" cy="451" r="1"/><circle cx="329" cy="516" r="1"/><circle cx="324" cy="455" r="1"/><circle cx="368" cy="466" r="1"/><circle cx="385" cy="448" r="1"/><circle cx="385" cy="480" r="1"/><circle cx="351" cy="480" r="1"/><circle cx="324" cy="490" r="1"/><circle cx="344" cy="507" r="1"/><circle cx="360" cy="503" r="1"/><circle cx="342" cy="527" r="1"/><circle cx="353" cy="544" r="1"/><circle cx="366" cy="531" r="1"/><circle cx="383" cy="548" r="1"/><circle cx="573" cy="439" r="1"/><circle cx="563" cy="389" r="1"/><circle cx="505" cy="389" r="1"/><circle cx="455" cy="424" r="1"/><circle cx="487" cy="424" r="1"/><circle cx="526" cy="463" r="1"/><circle cx="486" cy="463" r="1"/><circle cx="456" cy="454" r="1"/><circle cx="421" cy="467" r="1"/><circle cx="421" cy="498" r="1"/><circle cx="478" cy="380" r="1"/><circle cx="458" cy="400" r="1"/><circle cx="474" cy="435" r="1"/><circle cx="431" cy="422" r="1"/><circle cx="443" cy="478" r="1"/><circle cx="411" cy="543" r="1"/><circle cx="406" cy="482" r="1"/><circle cx="450" cy="493" r="1"/><circle cx="467" cy="475" r="1"/><circle cx="467" cy="507" r="1"/><circle cx="433" cy="507" r="1"/><circle cx="406" cy="517" r="1"/><circle cx="426" cy="534" r="1"/><circle cx="442" cy="530" r="1"/><circle cx="424" cy="554" r="1"/><circle cx="435" cy="571" r="1"/><circle cx="448" cy="558" r="1"/><circle cx="409" cy="575" r="1"/><circle cx="398.366" cy="510.145" r="1" transform="rotate(-150 398.366 510.145)"/><circle cx="407.366" cy="595.366" r="1" transform="rotate(-150 407.366 595.366)"/><circle cx="432.256" cy="587.447" r="1" transform="rotate(-150 432.256 587.447)"/><circle cx="493.366" cy="563.366" r="1" transform="rotate(-150 493.366 563.366)"/><circle cx="465.344" cy="566.136" r="1" transform="rotate(-150 465.344 566.136)"/><circle cx="451.069" cy="512.861" r="1" transform="rotate(-150 451.069 512.861)"/><circle cx="485.71" cy="532.861" r="1" transform="rotate(-150 485.71 532.861)"/><circle cx="507.191" cy="555.655" r="1" transform="rotate(-150 507.191 555.655)"/><circle cx="505.366" cy="575.366" r="1" transform="rotate(-150 505.366 575.366)"/><circle cx="537.366" cy="589.366" r="1" transform="rotate(-150 537.366 589.366)"/><circle cx="580.366" cy="545.366" r="1" transform="rotate(-150 580.366 545.366)"/><circle cx="483.366" cy="580.366" r="1" transform="rotate(-150 483.366 580.366)"/><circle cx="544.002" cy="561.897" r="1" transform="rotate(-150 544.002 561.897)"/><circle cx="559.502" cy="535.05" r="1" transform="rotate(-150 559.502 535.05)"/><circle cx="451.138" cy="608.741" r="1" transform="rotate(-150 451.138 608.741)"/><circle cx="478.459" cy="601.42" r="1" transform="rotate(-150 478.459 601.42)"/><circle cx="455.076" cy="587.92" r="1" transform="rotate(-150 455.076 587.92)"/><circle cx="512.842" cy="595.868" r="1" transform="rotate(-150 512.842 595.868)"/><circle cx="530.449" cy="541.37" r="1" transform="rotate(-150 530.449 541.37)"/><circle cx="590.662" cy="501.079" r="1" transform="rotate(-150 590.662 501.079)"/><circle cx="564.492" cy="556.406" r="1" transform="rotate(-150 564.492 556.406)"/><circle cx="531.887" cy="524.88" r="1" transform="rotate(-150 531.887 524.88)"/><circle cx="508.165" cy="531.969" r="1" transform="rotate(-150 508.165 531.969)"/><circle cx="524.165" cy="504.256" r="1" transform="rotate(-150 524.165 504.256)"/><circle cx="553.61" cy="521.256" r="1" transform="rotate(-150 553.61 521.256)"/><circle cx="581.992" cy="526.095" r="1" transform="rotate(-150 581.992 526.095)"/><circle cx="573.172" cy="501.373" r="1" transform="rotate(-150 573.172 501.373)"/><circle cx="557.315" cy="496.837" r="1" transform="rotate(-150 557.315 496.837)"/><circle cx="584.904" cy="485.053" r="1" transform="rotate(-150 584.904 485.053)"/><circle cx="583.878" cy="464.83" r="1" transform="rotate(-150 583.878 464.83)"/><circle cx="536.366" cy="437.366" r="1" transform="rotate(-150 536.366 437.366)"/><circle cx="559.897" cy="446.366" r="1" transform="rotate(-150 559.897 446.366)"/><circle cx="488.146" cy="522.662" r="1" transform="rotate(120 488.146 522.662)"/><circle cx="477.366" cy="491.366" r="1" transform="rotate(120 477.366 491.366)"/><circle cx="565.447" cy="488.772" r="1" transform="rotate(120 565.447 488.772)"/><circle cx="560.136" cy="427.971" r="1" transform="rotate(120 560.136 427.971)"/><circle cx="544.136" cy="455.684" r="1" transform="rotate(120 544.136 455.684)"/><circle cx="498.366" cy="469.366" r="1" transform="rotate(120 498.366 469.366)"/><circle cx="510.861" cy="435.318" r="1" transform="rotate(120 510.861 435.318)"/><circle cx="533.655" cy="413.837" r="1" transform="rotate(120 533.655 413.837)"/><circle cx="539.897" cy="377.026" r="1" transform="rotate(120 539.897 377.026)"/><circle cx="513.05" cy="361.526" r="1" transform="rotate(120 513.05 361.526)"/><circle cx="539.366" cy="476.366" r="1" transform="rotate(120 539.366 476.366)"/><circle cx="499.366" cy="492.366" r="1" transform="rotate(120 499.366 492.366)"/><circle cx="565.92" cy="465.952" r="1" transform="rotate(120 565.92 465.952)"/><circle cx="573.868" cy="408.186" r="1" transform="rotate(120 573.868 408.186)"/><circle cx="519.371" cy="390.579" r="1" transform="rotate(120 519.371 390.579)"/><circle cx="479.079" cy="330.366" r="1" transform="rotate(120 479.079 330.366)"/><circle cx="534.406" cy="356.536" r="1" transform="rotate(120 534.406 356.536)"/><circle cx="597.366" cy="438.366" r="1" transform="rotate(120 597.366 438.366)"/><circle cx="509.969" cy="412.863" r="1" transform="rotate(120 509.969 412.863)"/><circle cx="482.256" cy="396.863" r="1" transform="rotate(120 482.256 396.863)"/><circle cx="499.256" cy="367.419" r="1" transform="rotate(120 499.256 367.419)"/><circle cx="504.096" cy="339.036" r="1" transform="rotate(120 504.096 339.036)"/><circle cx="479.373" cy="347.856" r="1" transform="rotate(120 479.373 347.856)"/><circle cx="474.837" cy="363.713" r="1" transform="rotate(120 474.837 363.713)"/><circle cx="463.053" cy="336.124" r="1" transform="rotate(120 463.053 336.124)"/><circle cx="442.83" cy="337.151" r="1" transform="rotate(120 442.83 337.151)"/><circle cx="447.588" cy="354.909" r="1" transform="rotate(120 447.588 354.909)"/><circle cx="424.366" cy="361.131" r="1" transform="rotate(120 424.366 361.131)"/><circle cx="369" cy="562" r="1"/><circle cx="387" cy="576" r="1"/><circle cx="366" cy="329" r="1"/><circle cx="384" cy="324" r="1"/><circle cx="385.079" cy="274.366" r="1" transform="rotate(120 385.079 274.366)"/><circle cx="405.256" cy="311.419" r="1" transform="rotate(120 405.256 311.419)"/><circle cx="410.096" cy="283.036" r="1" transform="rotate(120 410.096 283.036)"/><circle cx="385.373" cy="291.856" r="1" transform="rotate(120 385.373 291.856)"/><circle cx="380.837" cy="307.713" r="1" transform="rotate(120 380.837 307.713)"/><circle cx="369.053" cy="280.124" r="1" transform="rotate(120 369.053 280.124)"/><circle cx="413" cy="345" r="1"/><circle cx="431" cy="340" r="1"/><circle cx="432.079" cy="290.366" r="1" transform="rotate(120 432.079 290.366)"/><circle cx="452.256" cy="327.419" r="1" transform="rotate(120 452.256 327.419)"/><circle cx="457.096" cy="299.036" r="1" transform="rotate(120 457.096 299.036)"/><circle cx="432.373" cy="307.856" r="1" transform="rotate(120 432.373 307.856)"/><circle cx="427.837" cy="323.713" r="1" transform="rotate(120 427.837 323.713)"/><circle cx="416.053" cy="296.124" r="1" transform="rotate(120 416.053 296.124)"/><circle cx="538" cy="321.462" r="1" transform="rotate(-90 538 321.462)"/><circle cx="533" cy="303.462" r="1" transform="rotate(-90 533 303.462)"/><circle cx="483.366" cy="302.383" r="1" transform="rotate(30 483.366 302.383)"/><circle cx="520.418" cy="282.206" r="1" transform="rotate(30 520.418 282.206)"/><circle cx="492.036" cy="277.366" r="1" transform="rotate(30 492.036 277.366)"/><circle cx="500.856" cy="302.088" r="1" transform="rotate(30 500.856 302.088)"/><circle cx="516.713" cy="306.624" r="1" transform="rotate(30 516.713 306.624)"/><circle cx="489.124" cy="318.409" r="1" transform="rotate(30 489.124 318.409)"/><circle cx="598" cy="307.462" r="1" transform="rotate(-90 598 307.462)"/><circle cx="593" cy="289.462" r="1" transform="rotate(-90 593 289.462)"/><circle cx="543.366" cy="288.383" r="1" transform="rotate(30 543.366 288.383)"/><circle cx="580.418" cy="268.206" r="1" transform="rotate(30 580.418 268.206)"/><circle cx="552.036" cy="263.366" r="1" transform="rotate(30 552.036 263.366)"/><circle cx="560.856" cy="288.088" r="1" transform="rotate(30 560.856 288.088)"/><circle cx="576.713" cy="292.624" r="1" transform="rotate(30 576.713 292.624)"/><circle cx="549.124" cy="304.409" r="1" transform="rotate(30 549.124 304.409)"/><circle cx="612" cy="364.462" r="1" transform="rotate(-90 612 364.462)"/><circle cx="607" cy="346.462" r="1" transform="rotate(-90 607 346.462)"/><circle cx="557.366" cy="345.383" r="1" transform="rotate(30 557.366 345.383)"/><circle cx="594.418" cy="325.206" r="1" transform="rotate(30 594.418 325.206)"/><circle cx="566.036" cy="320.366" r="1" transform="rotate(30 566.036 320.366)"/><circle cx="574.856" cy="345.088" r="1" transform="rotate(30 574.856 345.088)"/><circle cx="590.713" cy="349.624" r="1" transform="rotate(30 590.713 349.624)"/><circle cx="563.124" cy="361.409" r="1" transform="rotate(30 563.124 361.409)"/><circle cx="574.366" cy="396.383" r="1" transform="rotate(30 574.366 396.383)"/><circle cx="611.418" cy="376.206" r="1" transform="rotate(30 611.418 376.206)"/><circle cx="583.036" cy="371.366" r="1" transform="rotate(30 583.036 371.366)"/><circle cx="591.856" cy="396.088" r="1" transform="rotate(30 591.856 396.088)"/><circle cx="607.713" cy="400.624" r="1" transform="rotate(30 607.713 400.624)"/><circle cx="580.124" cy="412.409" r="1" transform="rotate(30 580.124 412.409)"/><circle cx="355" cy="578.462" r="1" transform="rotate(-90 355 578.462)"/><circle cx="350" cy="560.462" r="1" transform="rotate(-90 350 560.462)"/><circle cx="300.366" cy="559.383" r="1" transform="rotate(30 300.366 559.383)"/><circle cx="337.418" cy="539.206" r="1" transform="rotate(30 337.418 539.206)"/><circle cx="309.036" cy="534.366" r="1" transform="rotate(30 309.036 534.366)"/><circle cx="317.856" cy="559.088" r="1" transform="rotate(30 317.856 559.088)"/><circle cx="333.713" cy="563.624" r="1" transform="rotate(30 333.713 563.624)"/><circle cx="306.124" cy="575.409" r="1" transform="rotate(30 306.124 575.409)"/><circle cx="318.225" cy="586.926" r="1" transform="rotate(75 318.225 586.926)"/><circle cx="327.713" cy="603.019" r="1" transform="rotate(75 327.713 603.019)"/><circle cx="375.935" cy="591.215" r="1" transform="rotate(-165 375.935 591.215)"/><circle cx="345.367" cy="620.294" r="1" transform="rotate(-165 345.367 620.294)"/><circle cx="374.036" cy="617.623" r="1" transform="rotate(-165 374.036 617.623)"/><circle cx="359.117" cy="596.026" r="1" transform="rotate(-165 359.117 596.026)"/><circle cx="342.627" cy="595.748" r="1" transform="rotate(-165 342.627 595.748)"/><circle cx="366.225" cy="577.225" r="1" transform="rotate(-165 366.225 577.225)"/><circle cx="216" cy="320.462" r="1" transform="rotate(-90 216 320.462)"/><circle cx="211" cy="302.462" r="1" transform="rotate(-90 211 302.462)"/><circle cx="161.366" cy="301.383" r="1" transform="rotate(30 161.366 301.383)"/><circle cx="198.418" cy="281.206" r="1" transform="rotate(30 198.418 281.206)"/><circle cx="170.036" cy="276.366" r="1" transform="rotate(30 170.036 276.366)"/><circle cx="178.856" cy="301.088" r="1" transform="rotate(30 178.856 301.088)"/><circle cx="194.713" cy="305.624" r="1" transform="rotate(30 194.713 305.624)"/><circle cx="167.124" cy="317.409" r="1" transform="rotate(30 167.124 317.409)"/><circle cx="140" cy="356.462" r="1" transform="rotate(-90 140 356.462)"/><circle cx="135" cy="338.462" r="1" transform="rotate(-90 135 338.462)"/><circle cx="85.366" cy="337.383" r="1" transform="rotate(30 85.366 337.383)"/><circle cx="122.418" cy="317.206" r="1" transform="rotate(30 122.418 317.206)"/><circle cx="94.036" cy="312.366" r="1" transform="rotate(30 94.036 312.366)"/><circle cx="102.856" cy="337.088" r="1" transform="rotate(30 102.856 337.088)"/><circle cx="118.713" cy="341.624" r="1" transform="rotate(30 118.713 341.624)"/><circle cx="91.124" cy="353.409" r="1" transform="rotate(30 91.124 353.409)"/><circle cx="95" cy="272" r="1" transform="rotate(90 95 272)"/><circle cx="100" cy="290" r="1" transform="rotate(90 100 290)"/><circle cx="149.634" cy="291.079" r="1" transform="rotate(-150 149.634 291.079)"/><circle cx="112.582" cy="311.256" r="1" transform="rotate(-150 112.582 311.256)"/><circle cx="140.964" cy="316.096" r="1" transform="rotate(-150 140.964 316.096)"/><circle cx="132.144" cy="291.373" r="1" transform="rotate(-150 132.144 291.373)"/><circle cx="116.287" cy="286.837" r="1" transform="rotate(-150 116.287 286.837)"/><circle cx="143.876" cy="275.053" r="1" transform="rotate(-150 143.876 275.053)"/><circle cx="34" cy="256" r="1" transform="rotate(90 34 256)"/><circle cx="39" cy="274" r="1" transform="rotate(90 39 274)"/><circle cx="88.634" cy="275.079" r="1" transform="rotate(-150 88.634 275.079)"/><circle cx="51.582" cy="295.256" r="1" transform="rotate(-150 51.582 295.256)"/><circle cx="79.964" cy="300.096" r="1" transform="rotate(-150 79.964 300.096)"/><circle cx="71.144" cy="275.373" r="1" transform="rotate(-150 71.144 275.373)"/><circle cx="55.287" cy="270.837" r="1" transform="rotate(-150 55.287 270.837)"/><circle cx="82.876" cy="259.053" r="1" transform="rotate(-150 82.876 259.053)"/><circle cx="20" cy="308" r="1" transform="rotate(90 20 308)"/><circle cx="25" cy="326" r="1" transform="rotate(90 25 326)"/><circle cx="74.634" cy="327.079" r="1" transform="rotate(-150 74.634 327.079)"/><circle cx="37.582" cy="347.256" r="1" transform="rotate(-150 37.582 347.256)"/><circle cx="65.964" cy="352.096" r="1" transform="rotate(-150 65.964 352.096)"/><circle cx="57.144" cy="327.373" r="1" transform="rotate(-150 57.144 327.373)"/><circle cx="41.287" cy="322.837" r="1" transform="rotate(-150 41.287 322.837)"/><circle cx="68.876" cy="311.053" r="1" transform="rotate(-150 68.876 311.053)"/><circle cx="1" cy="364" r="1" transform="rotate(90 1 364)"/><circle cx="6" cy="382" r="1" transform="rotate(90 6 382)"/><circle cx="55.634" cy="383.079" r="1" transform="rotate(-150 55.634 383.079)"/><circle cx="18.582" cy="403.256" r="1" transform="rotate(-150 18.582 403.256)"/><circle cx="46.964" cy="408.096" r="1" transform="rotate(-150 46.964 408.096)"/><circle cx="38.144" cy="383.373" r="1" transform="rotate(-150 38.144 383.373)"/><circle cx="22.287" cy="378.837" r="1" transform="rotate(-150 22.287 378.837)"/><circle cx="49.876" cy="367.053" r="1" transform="rotate(-150 49.876 367.053)"/><circle cx="10" cy="207" r="1" transform="rotate(90 10 207)"/><circle cx="15" cy="225" r="1" transform="rotate(90 15 225)"/><circle cx="64.634" cy="226.079" r="1" transform="rotate(-150 64.634 226.079)"/><circle cx="27.582" cy="246.256" r="1" transform="rotate(-150 27.582 246.256)"/><circle cx="55.964" cy="251.096" r="1" transform="rotate(-150 55.964 251.096)"/><circle cx="47.144" cy="226.373" r="1" transform="rotate(-150 47.144 226.373)"/><circle cx="31.287" cy="221.837" r="1" transform="rotate(-150 31.287 221.837)"/><circle cx="58.876" cy="210.053" r="1" transform="rotate(-150 58.876 210.053)"/><circle cx="309" cy="615.462" r="1" transform="rotate(-90 309 615.462)"/><circle cx="304" cy="597.462" r="1" transform="rotate(-90 304 597.462)"/><circle cx="254.366" cy="596.383" r="1" transform="rotate(30 254.366 596.383)"/><circle cx="291.418" cy="576.206" r="1" transform="rotate(30 291.418 576.206)"/><circle cx="263.036" cy="571.366" r="1" transform="rotate(30 263.036 571.366)"/><circle cx="271.856" cy="596.088" r="1" transform="rotate(30 271.856 596.088)"/><circle cx="287.713" cy="600.624" r="1" transform="rotate(30 287.713 600.624)"/><circle cx="260.124" cy="612.409" r="1" transform="rotate(30 260.124 612.409)"/><circle cx="316.175" cy="325.175" r="1" transform="rotate(101.204 316.175 325.175)"/><circle cx="317.583" cy="343.804" r="1" transform="rotate(101.204 317.583 343.804)"/><circle cx="366.061" cy="354.506" r="1" transform="rotate(-138.796 366.061 354.506)"/><circle cx="325.794" cy="367.099" r="1" transform="rotate(-138.796 325.794 367.099)"/><circle cx="352.696" cy="377.361" r="1" transform="rotate(-138.796 352.696 377.361)"/><circle cx="348.847" cy="351.396" r="1" transform="rotate(-138.796 348.847 351.396)"/><circle cx="334.174" cy="343.866" r="1" transform="rotate(-138.796 334.174 343.866)"/><circle cx="363.526" cy="337.666" r="1" transform="rotate(-138.796 363.526 337.666)"/><circle cx="303.608" cy="240.168" r="1" transform="rotate(169.355 303.608 240.168)"/><circle cx="286.841" cy="248.406" r="1" transform="rotate(169.355 286.841 248.406)"/><circle cx="294.949" cy="297.385" r="1" transform="rotate(-70.645 294.949 297.385)"/><circle cx="268.275" cy="264.698" r="1" transform="rotate(-70.645 268.275 264.698)"/><circle cx="268.761" cy="293.486" r="1" transform="rotate(-70.645 268.761 293.486)"/><circle cx="291.429" cy="280.25" r="1" transform="rotate(-70.645 291.429 280.25)"/><circle cx="292.958" cy="263.829" r="1" transform="rotate(-70.645 292.958 263.829)"/><circle cx="309.636" cy="288.766" r="1" transform="rotate(-70.645 309.636 288.766)"/></svg>