<svg xmlns="http://www.w3.org/2000/svg" width="276" height="282" fill="#ffffff80"><circle cx="168" cy="83" r="1"/><circle cx="137" cy="56" r="1"/><circle cx="110" cy="65" r="1"/><circle cx="50" cy="68" r="1"/><circle cx="82" cy="68" r="1"/><circle cx="121" cy="107" r="1"/><circle cx="81" cy="107" r="1"/><circle cx="51" cy="98" r="1"/><circle cx="16" cy="111" r="1"/><circle cx="16" cy="142" r="1"/><circle cx="275" cy="142" r="1"/><circle cx="73" cy="24" r="1"/><circle cx="53" cy="44" r="1"/><circle cx="80" cy="44" r="1"/><circle cx="26" cy="66" r="1"/><circle cx="38" cy="122" r="1"/><circle cx="6" cy="187" r="1"/><circle cx="1" cy="126" r="1"/><circle cx="45" cy="137" r="1"/><circle cx="62" cy="119" r="1"/><circle cx="62" cy="151" r="1"/><circle cx="28" cy="151" r="1"/><circle cx="1" cy="161" r="1"/><circle cx="21" cy="178" r="1"/><circle cx="37" cy="174" r="1"/><circle cx="19" cy="198" r="1"/><circle cx="30" cy="215" r="1"/><circle cx="43" cy="202" r="1"/><circle cx="60" cy="219" r="1"/><circle cx="250" cy="110" r="1"/><circle cx="240" cy="60" r="1"/><circle cx="182" cy="60" r="1"/><circle cx="132" cy="95" r="1"/><circle cx="164" cy="95" r="1"/><circle cx="203" cy="134" r="1"/><circle cx="163" cy="134" r="1"/><circle cx="133" cy="125" r="1"/><circle cx="98" cy="138" r="1"/><circle cx="98" cy="169" r="1"/><circle cx="155" cy="51" r="1"/><circle cx="135" cy="71" r="1"/><circle cx="151" cy="106" r="1"/><circle cx="108" cy="93" r="1"/><circle cx="120" cy="149" r="1"/><circle cx="88" cy="214" r="1"/><circle cx="83" cy="153" r="1"/><circle cx="127" cy="164" r="1"/><circle cx="144" cy="146" r="1"/><circle cx="144" cy="178" r="1"/><circle cx="110" cy="178" r="1"/><circle cx="83" cy="188" r="1"/><circle cx="103" cy="205" r="1"/><circle cx="119" cy="201" r="1"/><circle cx="101" cy="225" r="1"/><circle cx="112" cy="242" r="1"/><circle cx="125" cy="229" r="1"/><circle cx="86" cy="246" r="1"/><circle cx="75.366" cy="181.145" r="1" transform="rotate(-150 75.366 181.145)"/><circle cx="84.366" cy="266.366" r="1" transform="rotate(-150 84.366 266.366)"/><circle cx="109.256" cy="258.447" r="1" transform="rotate(-150 109.256 258.447)"/><circle cx="170.366" cy="234.366" r="1" transform="rotate(-150 170.366 234.366)"/><circle cx="142.344" cy="237.136" r="1" transform="rotate(-150 142.344 237.136)"/><circle cx="128.069" cy="183.861" r="1" transform="rotate(-150 128.069 183.861)"/><circle cx="162.71" cy="203.861" r="1" transform="rotate(-150 162.71 203.861)"/><circle cx="184.191" cy="226.655" r="1" transform="rotate(-150 184.191 226.655)"/><circle cx="182.366" cy="246.366" r="1" transform="rotate(-150 182.366 246.366)"/><circle cx="214.366" cy="260.366" r="1" transform="rotate(-150 214.366 260.366)"/><circle cx="257.366" cy="216.366" r="1" transform="rotate(-150 257.366 216.366)"/><circle cx="160.366" cy="251.366" r="1" transform="rotate(-150 160.366 251.366)"/><circle cx="221.002" cy="232.897" r="1" transform="rotate(-150 221.002 232.897)"/><circle cx="236.502" cy="206.05" r="1" transform="rotate(-150 236.502 206.05)"/><circle cx="128.138" cy="279.741" r="1" transform="rotate(-150 128.138 279.741)"/><circle cx="155.459" cy="272.42" r="1" transform="rotate(-150 155.459 272.42)"/><circle cx="132.076" cy="258.92" r="1" transform="rotate(-150 132.076 258.92)"/><circle cx="189.842" cy="266.868" r="1" transform="rotate(-150 189.842 266.868)"/><circle cx="207.449" cy="212.37" r="1" transform="rotate(-150 207.449 212.37)"/><circle cx="267.662" cy="172.079" r="1" transform="rotate(-150 267.662 172.079)"/><circle cx="241.492" cy="227.406" r="1" transform="rotate(-150 241.492 227.406)"/><circle cx="208.887" cy="195.88" r="1" transform="rotate(-150 208.887 195.88)"/><circle cx="185.165" cy="202.969" r="1" transform="rotate(-150 185.165 202.969)"/><circle cx="201.165" cy="175.256" r="1" transform="rotate(-150 201.165 175.256)"/><circle cx="230.61" cy="192.256" r="1" transform="rotate(-150 230.61 192.256)"/><circle cx="258.992" cy="197.095" r="1" transform="rotate(-150 258.992 197.095)"/><circle cx="250.172" cy="172.373" r="1" transform="rotate(-150 250.172 172.373)"/><circle cx="234.315" cy="167.837" r="1" transform="rotate(-150 234.315 167.837)"/><circle cx="261.904" cy="156.053" r="1" transform="rotate(-150 261.904 156.053)"/><circle cx="260.878" cy="135.83" r="1" transform="rotate(-150 260.878 135.83)"/><circle cx="213.366" cy="108.366" r="1" transform="rotate(-150 213.366 108.366)"/><circle cx="236.897" cy="117.366" r="1" transform="rotate(-150 236.897 117.366)"/><circle cx="165.146" cy="193.662" r="1" transform="rotate(120 165.146 193.662)"/><circle cx="154.366" cy="162.366" r="1" transform="rotate(120 154.366 162.366)"/><circle cx="242.447" cy="159.772" r="1" transform="rotate(120 242.447 159.772)"/><circle cx="237.136" cy="98.971" r="1" transform="rotate(120 237.136 98.971)"/><circle cx="221.136" cy="126.684" r="1" transform="rotate(120 221.136 126.684)"/><circle cx="175.366" cy="140.366" r="1" transform="rotate(120 175.366 140.366)"/><circle cx="187.861" cy="106.318" r="1" transform="rotate(120 187.861 106.318)"/><circle cx="210.655" cy="84.837" r="1" transform="rotate(120 210.655 84.837)"/><circle cx="216.897" cy="48.026" r="1" transform="rotate(120 216.897 48.026)"/><circle cx="190.05" cy="32.526" r="1" transform="rotate(120 190.05 32.526)"/><circle cx="216.366" cy="147.366" r="1" transform="rotate(120 216.366 147.366)"/><circle cx="176.366" cy="163.366" r="1" transform="rotate(120 176.366 163.366)"/><circle cx="242.92" cy="136.952" r="1" transform="rotate(120 242.92 136.952)"/><circle cx="250.868" cy="79.186" r="1" transform="rotate(120 250.868 79.186)"/><circle cx="196.371" cy="61.579" r="1" transform="rotate(120 196.371 61.579)"/><circle cx="156.079" cy="1.366" r="1" transform="rotate(120 156.079 1.366)"/><circle cx="211.406" cy="27.536" r="1" transform="rotate(120 211.406 27.536)"/><circle cx="274.366" cy="109.366" r="1" transform="rotate(120 274.366 109.366)"/><circle cx="186.969" cy="83.864" r="1" transform="rotate(120 186.969 83.864)"/><circle cx="159.256" cy="67.864" r="1" transform="rotate(120 159.256 67.864)"/><circle cx="176.256" cy="38.419" r="1" transform="rotate(120 176.256 38.419)"/><circle cx="181.096" cy="10.036" r="1" transform="rotate(120 181.096 10.036)"/><circle cx="156.373" cy="18.856" r="1" transform="rotate(120 156.373 18.856)"/><circle cx="151.837" cy="34.713" r="1" transform="rotate(120 151.837 34.713)"/><circle cx="140.053" cy="7.124" r="1" transform="rotate(120 140.053 7.124)"/><circle cx="119.83" cy="8.151" r="1" transform="rotate(120 119.83 8.15)"/><circle cx="124.588" cy="25.909" r="1" transform="rotate(120 124.588 25.909)"/><circle cx="101.366" cy="32.131" r="1" transform="rotate(120 101.366 32.131)"/><circle cx="46" cy="233" r="1"/><circle cx="64" cy="247" r="1"/></svg>