<svg width="81" height="60" viewBox="0 0 81 60" fill="none" xmlns="http://www.w3.org/2000/svg">
<line x1="36.7175" y1="47.9999" x2="36.7175" y2="37.4999" stroke="#25B344" stroke-width="2"/>
<path d="M44.5378 25.8171C44.5378 30.1343 40.9963 40.1484 36.6277 40.1484C32.259 40.1484 28.7175 30.1343 28.7175 25.8171C28.7175 21.4998 32.259 18 36.6277 18C40.9963 18 44.5378 21.4998 44.5378 25.8171Z" fill="#3DD65E"/>
<path d="M42.1799 32.7123C41.3306 33.5615 38.6782 34.8486 37.836 34.0065C36.9939 33.1643 38.281 30.5119 39.1302 29.6626C39.9794 28.8134 41.3505 28.8077 42.1927 29.6498C43.0348 30.492 43.0291 31.8631 42.1799 32.7123Z" fill="black"/>
<path d="M31.5207 32.7123C32.3699 33.5615 35.0224 34.8486 35.8645 34.0065C36.7067 33.1643 35.4196 30.5119 34.5704 29.6626C33.7211 28.8134 32.35 28.8077 31.5079 29.6498C30.6658 30.492 30.6715 31.8631 31.5207 32.7123Z" fill="black"/>
<path d="M73.4642 40.5796C73.002 40.4817 72.6714 40.0737 72.6714 39.6013L72.6714 35.3986C72.6714 34.9262 73.002 34.5182 73.4642 34.4203L78.9642 33.2556C79.5861 33.1239 80.1714 33.5982 80.1714 34.2339L80.1714 40.766C80.1714 41.4017 79.5861 41.876 78.9642 41.7443L73.4642 40.5796Z" fill="#4D4D4D"/>
<path d="M68.9642 40.5796C68.502 40.4817 68.1714 40.0737 68.1714 39.6013L68.1714 35.3986C68.1714 34.9262 68.502 34.5182 68.9642 34.4203L74.4642 33.2556C75.0861 33.1239 75.6714 33.5982 75.6714 34.2339L75.6714 40.766C75.6714 41.4017 75.0861 41.876 74.4642 41.7443L68.9642 40.5796Z" fill="#8C8C8C"/>
<path d="M8.48606 31.5137C23.9496 46.9772 48.9655 47.1553 64.6482 31.9141L66.6384 29.9785L72.7341 36.0742C73.5151 36.8552 73.5151 38.1213 72.7341 38.9023L64.9441 46.6934C49.3231 62.3139 23.9966 62.314 8.37571 46.6934L0.585674 38.9023C-0.19515 38.1213 -0.1953 36.8552 0.585674 36.0742L6.81614 29.8428L8.48606 31.5137Z" fill="#4E4E4E"/>
<path d="M22.2984 14.2223C30.0813 6.43948 42.69 6.40794 50.5117 14.1518L66.6716 30.1508L64.6478 32.1142C48.9615 47.3321 23.9649 47.1427 8.51108 31.6888L6.67151 29.8492L22.2984 14.2223Z" fill="#006A2E" fill-opacity="0.3"/>
<circle cx="7.42138" cy="36.7499" r="2.25" fill="url(#paint0_radial_4_462)"/>
<circle cx="65.9214" cy="36.7499" r="2.25" fill="url(#paint1_radial_4_462)"/>
<circle cx="13.4214" cy="41.2499" r="2.25" fill="url(#paint2_radial_4_462)"/>
<circle cx="58.4214" cy="41.2499" r="2.25" fill="url(#paint3_radial_4_462)"/>
<circle cx="20.9214" cy="44.2499" r="2.25" fill="url(#paint4_radial_4_462)"/>
<circle cx="50.9214" cy="44.2499" r="2.25" fill="url(#paint5_radial_4_462)"/>
<circle cx="35.9214" cy="48.7499" r="2.25" fill="url(#paint6_radial_4_462)"/>
<circle cx="28.4214" cy="47.2499" r="2.25" fill="url(#paint7_radial_4_462)"/>
<circle cx="43.4214" cy="47.2499" r="2.25" fill="url(#paint8_radial_4_462)"/>
<defs>
<radialGradient id="paint0_radial_4_462" cx="0" cy="0" r="1" gradientUnits="userSpaceOnUse" gradientTransform="translate(6.97139 35.8499) rotate(81.8699) scale(3.18198)">
<stop stop-color="#6DE854"/>
<stop offset="0.75929" stop-color="#D3F011"/>
</radialGradient>
<radialGradient id="paint1_radial_4_462" cx="0" cy="0" r="1" gradientUnits="userSpaceOnUse" gradientTransform="translate(65.4714 35.8499) rotate(81.8699) scale(3.18198)">
<stop stop-color="#6DE854"/>
<stop offset="0.75929" stop-color="#D3F011"/>
</radialGradient>
<radialGradient id="paint2_radial_4_462" cx="0" cy="0" r="1" gradientUnits="userSpaceOnUse" gradientTransform="translate(12.9714 40.3499) rotate(81.8699) scale(3.18198)">
<stop stop-color="#6DE854"/>
<stop offset="0.75929" stop-color="#D3F011"/>
</radialGradient>
<radialGradient id="paint3_radial_4_462" cx="0" cy="0" r="1" gradientUnits="userSpaceOnUse" gradientTransform="translate(57.9714 40.3499) rotate(81.8699) scale(3.18198)">
<stop stop-color="#6DE854"/>
<stop offset="0.75929" stop-color="#D3F011"/>
</radialGradient>
<radialGradient id="paint4_radial_4_462" cx="0" cy="0" r="1" gradientUnits="userSpaceOnUse" gradientTransform="translate(20.4714 43.3499) rotate(81.8699) scale(3.18198)">
<stop stop-color="#6DE854"/>
<stop offset="0.75929" stop-color="#D3F011"/>
</radialGradient>
<radialGradient id="paint5_radial_4_462" cx="0" cy="0" r="1" gradientUnits="userSpaceOnUse" gradientTransform="translate(50.4714 43.3499) rotate(81.8699) scale(3.18198)">
<stop stop-color="#6DE854"/>
<stop offset="0.75929" stop-color="#D3F011"/>
</radialGradient>
<radialGradient id="paint6_radial_4_462" cx="0" cy="0" r="1" gradientUnits="userSpaceOnUse" gradientTransform="translate(35.4714 47.8499) rotate(81.8699) scale(3.18198)">
<stop stop-color="#6DE854"/>
<stop offset="0.75929" stop-color="#D3F011"/>
</radialGradient>
<radialGradient id="paint7_radial_4_462" cx="0" cy="0" r="1" gradientUnits="userSpaceOnUse" gradientTransform="translate(27.9714 46.3499) rotate(81.8699) scale(3.18198)">
<stop stop-color="#6DE854"/>
<stop offset="0.75929" stop-color="#D3F011"/>
</radialGradient>
<radialGradient id="paint8_radial_4_462" cx="0" cy="0" r="1" gradientUnits="userSpaceOnUse" gradientTransform="translate(42.9714 46.3499) rotate(81.8699) scale(3.18198)">
<stop stop-color="#6DE854"/>
<stop offset="0.75929" stop-color="#D3F011"/>
</radialGradient>
</defs>
</svg>
