<svg width="54" height="40" viewBox="0 0 54 40" fill="none" xmlns="http://www.w3.org/2000/svg">
<path d="M49.0958 27.1091C48.6336 27.0112 48.303 26.6032 48.303 26.1308L48.303 23.8692C48.303 23.3968 48.6336 22.9888 49.0958 22.8909L52.0958 22.2556C52.7177 22.1239 53.303 22.5983 53.303 23.2339L53.303 26.7661C53.303 27.4017 52.7177 27.8761 52.0958 27.7444L49.0958 27.1091Z" fill="#525252"/>
<path d="M46.0958 27.1091C45.6336 27.0112 45.303 26.6032 45.303 26.1308L45.303 23.8692C45.303 23.3968 45.6336 22.9888 46.0958 22.8909L49.0958 22.2556C49.7177 22.1239 50.303 22.5983 50.303 23.2339L50.303 26.7661C50.303 27.4017 49.7177 27.8761 49.0958 27.7444L46.0958 27.1091Z" fill="#8C8C8C"/>
<path fill-rule="evenodd" clip-rule="evenodd" d="M4.40086 19.8945C15.3882 30.7786 33.0781 30.8741 44.1811 20.084L44.2807 19.9854L48.0981 23.8027C48.7549 24.46 48.7551 25.5255 48.0981 26.1826C34.9525 39.3283 13.6383 39.3283 0.492657 26.1826C-0.164308 25.5255 -0.164131 24.46 0.492657 23.8027L4.40086 19.8945Z" fill="#4E4E4E"/>
<path d="M10.0304 14.1721C17.8133 6.38922 30.4221 6.35768 38.2438 14.1015L44.3031 20.1005C33.1551 30.9157 15.2859 30.8824 4.303 19.8995L10.0304 14.1721Z" fill="#006A2E" fill-opacity="0.3"/>
<circle cx="4.80298" cy="24.5" r="1.5" fill="url(#paint0_radial_4_443)"/>
<circle cx="43.803" cy="24.5" r="1.5" fill="url(#paint1_radial_4_443)"/>
<circle cx="8.80298" cy="27.5" r="1.5" fill="url(#paint2_radial_4_443)"/>
<circle cx="38.803" cy="27.5" r="1.5" fill="url(#paint3_radial_4_443)"/>
<circle cx="13.803" cy="29.5" r="1.5" fill="url(#paint4_radial_4_443)"/>
<circle cx="33.803" cy="29.5" r="1.5" fill="url(#paint5_radial_4_443)"/>
<circle cx="23.803" cy="32.5" r="1.5" fill="url(#paint6_radial_4_443)"/>
<circle cx="18.803" cy="31.5" r="1.5" fill="url(#paint7_radial_4_443)"/>
<circle cx="28.803" cy="31.5" r="1.5" fill="url(#paint8_radial_4_443)"/>
<defs>
<radialGradient id="paint0_radial_4_443" cx="0" cy="0" r="1" gradientUnits="userSpaceOnUse" gradientTransform="translate(4.50298 23.9) rotate(81.8699) scale(2.12132)">
<stop stop-color="#6DE854"/>
<stop offset="0.75929" stop-color="#D3F011"/>
</radialGradient>
<radialGradient id="paint1_radial_4_443" cx="0" cy="0" r="1" gradientUnits="userSpaceOnUse" gradientTransform="translate(43.503 23.9) rotate(81.8699) scale(2.12132)">
<stop stop-color="#6DE854"/>
<stop offset="0.75929" stop-color="#D3F011"/>
</radialGradient>
<radialGradient id="paint2_radial_4_443" cx="0" cy="0" r="1" gradientUnits="userSpaceOnUse" gradientTransform="translate(8.50298 26.9) rotate(81.8699) scale(2.12132)">
<stop stop-color="#6DE854"/>
<stop offset="0.75929" stop-color="#D3F011"/>
</radialGradient>
<radialGradient id="paint3_radial_4_443" cx="0" cy="0" r="1" gradientUnits="userSpaceOnUse" gradientTransform="translate(38.503 26.9) rotate(81.8699) scale(2.12132)">
<stop stop-color="#6DE854"/>
<stop offset="0.75929" stop-color="#D3F011"/>
</radialGradient>
<radialGradient id="paint4_radial_4_443" cx="0" cy="0" r="1" gradientUnits="userSpaceOnUse" gradientTransform="translate(13.503 28.9) rotate(81.8699) scale(2.12132)">
<stop stop-color="#6DE854"/>
<stop offset="0.75929" stop-color="#D3F011"/>
</radialGradient>
<radialGradient id="paint5_radial_4_443" cx="0" cy="0" r="1" gradientUnits="userSpaceOnUse" gradientTransform="translate(33.503 28.9) rotate(81.8699) scale(2.12132)">
<stop stop-color="#6DE854"/>
<stop offset="0.75929" stop-color="#D3F011"/>
</radialGradient>
<radialGradient id="paint6_radial_4_443" cx="0" cy="0" r="1" gradientUnits="userSpaceOnUse" gradientTransform="translate(23.503 31.9) rotate(81.8699) scale(2.12132)">
<stop stop-color="#6DE854"/>
<stop offset="0.75929" stop-color="#D3F011"/>
</radialGradient>
<radialGradient id="paint7_radial_4_443" cx="0" cy="0" r="1" gradientUnits="userSpaceOnUse" gradientTransform="translate(18.503 30.9) rotate(81.8699) scale(2.12132)">
<stop stop-color="#6DE854"/>
<stop offset="0.75929" stop-color="#D3F011"/>
</radialGradient>
<radialGradient id="paint8_radial_4_443" cx="0" cy="0" r="1" gradientUnits="userSpaceOnUse" gradientTransform="translate(28.503 30.9) rotate(81.8699) scale(2.12132)">
<stop stop-color="#6DE854"/>
<stop offset="0.75929" stop-color="#D3F011"/>
</radialGradient>
</defs>
</svg>
